<?xml version="1.0" encoding="utf-8"?>
<svg xmlns="http://www.w3.org/2000/svg" height="512pt" version="1.1" viewBox="0 0 512 512" width="512pt">
<path d="M 0.00 0.00 L 512.00 0.00 L 512.00 512.00 L 0.00 512.00 L 0.00 0.00 Z" fill="#fffffe" opacity="1.00" stroke="#fffffe" stroke-width="0.25"/>
<path d="M 400.22 9.69 C 402.36 10.83 407.79 7.40 406.81 10.78 C 392.21 17.39 374.33 23.96 368.37 40.37 C 364.20 54.75 382.43 60.54 393.00 62.98 C 406.92 65.54 423.69 71.39 429.18 85.87 C 433.84 101.26 420.22 112.53 408.72 119.70 C 399.80 121.83 391.00 125.31 381.83 126.02 C 391.53 120.87 403.15 114.68 403.80 102.10 C 402.03 87.93 385.94 83.39 374.00 80.99 C 359.65 77.94 342.34 77.81 331.81 66.22 C 323.65 56.85 331.78 43.16 339.20 36.20 C 356.18 21.63 377.78 11.38 400.22 9.69 Z" fill="#e9e1d7" opacity="1.00" stroke="#e9e1d7" stroke-width="0.25"/>
<path d="M 248.19 78.00 C 248.33 76.01 251.81 76.42 252.96 77.47 C 251.44 78.11 249.79 78.18 248.19 78.00 Z" fill="#a09288" opacity="1.00" stroke="#a09288" stroke-width="0.25"/>
<path d="M 252.96 77.47 C 270.52 74.39 294.65 86.91 292.57 107.00 C 291.92 108.17 291.81 109.52 291.98 110.82 C 291.86 111.96 291.43 113.00 290.70 113.94 C 288.09 117.87 292.50 117.44 296.04 117.03 C 321.19 121.30 346.03 132.01 364.11 150.43 C 366.20 151.10 368.42 151.29 370.76 151.00 C 377.60 152.07 385.34 154.92 390.10 159.87 C 388.65 160.54 387.20 161.21 385.75 161.89 C 380.50 158.16 374.53 155.75 368.13 154.86 C 369.23 156.89 370.35 158.91 371.16 161.08 C 371.05 161.50 370.82 162.33 370.70 162.75 C 368.30 165.72 366.07 168.83 363.91 171.98 C 349.91 178.25 334.88 181.63 319.73 183.66 C 314.58 184.60 309.44 185.65 304.24 186.29 C 302.43 186.21 298.81 186.06 297.00 185.98 C 316.56 180.95 340.19 177.90 359.16 167.58 C 365.71 165.29 362.21 157.73 358.08 154.66 C 347.58 141.53 331.59 134.21 316.21 128.36 C 309.00 125.86 301.71 123.45 294.17 122.19 C 289.92 122.01 285.29 120.13 281.29 122.26 C 265.11 129.18 246.96 126.54 230.70 122.02 C 207.76 123.98 186.11 133.70 166.81 145.87 C 161.07 150.88 153.60 155.49 150.76 162.89 C 153.23 175.28 169.15 175.90 179.28 179.10 C 178.96 180.85 177.29 181.09 175.83 181.41 C 171.21 180.37 166.68 179.05 162.17 177.65 C 154.92 174.09 141.12 172.71 143.00 162.03 C 143.86 159.45 145.86 157.40 147.07 154.99 C 139.05 157.16 130.68 159.84 124.73 165.94 C 117.93 172.17 122.37 181.70 129.56 185.47 C 141.27 191.32 153.85 195.56 166.73 197.99 C 170.52 198.93 174.32 199.82 178.15 200.63 C 175.67 200.69 174.00 202.42 172.52 204.20 C 158.85 202.20 145.55 198.20 132.65 193.34 C 130.14 192.01 129.25 195.48 128.01 196.95 C 127.75 197.37 127.22 198.20 126.95 198.61 C 110.55 225.88 96.38 255.81 92.70 287.76 C 92.00 295.88 91.20 304.19 92.56 312.29 C 93.57 324.31 95.93 336.63 101.79 347.30 C 106.14 358.14 113.98 366.85 122.24 374.86 C 121.08 376.71 116.40 378.74 117.56 374.94 C 117.06 370.49 113.44 376.89 111.80 378.10 C 103.60 371.72 98.74 362.31 93.29 353.78 C 52.63 342.73 16.74 308.38 10.02 265.84 C 10.19 264.53 10.07 263.19 9.45 262.01 C 9.07 260.70 8.92 259.36 9.00 257.99 C 8.98 254.86 9.16 251.72 8.37 248.68 C 7.82 246.78 8.01 244.80 8.44 242.90 C 9.09 240.68 9.28 238.46 9.03 236.23 C 10.82 207.81 33.95 182.32 62.16 178.01 C 63.47 178.19 64.82 178.08 65.99 177.44 C 66.47 177.34 67.43 177.12 67.91 177.02 C 72.94 176.97 77.97 177.03 83.00 176.97 C 96.48 177.40 109.41 182.95 120.23 190.76 C 121.27 192.11 125.25 193.06 123.76 190.24 C 120.61 186.96 116.15 184.06 116.02 179.02 C 115.99 176.33 115.98 173.65 115.99 170.98 C 120.76 157.29 137.48 151.35 150.86 150.86 C 170.69 133.17 195.91 121.85 222.04 117.12 C 226.53 116.60 221.46 111.32 221.37 108.62 C 218.99 93.01 234.17 80.64 248.19 78.00 C 249.79 78.18 251.44 78.11 252.96 77.47 Z" fill="#461e0c" opacity="1.00" stroke="#461e0c" stroke-width="0.25"/>
<path d="M 232.77 90.74 C 244.72 79.30 264.65 78.37 277.99 87.99 C 285.18 92.83 290.79 105.45 283.67 112.47 C 280.53 108.51 284.39 102.93 281.38 98.68 C 279.77 94.27 276.02 91.01 272.15 88.54 C 265.99 83.87 257.57 84.34 250.32 84.29 C 248.33 84.78 242.15 83.92 245.13 86.20 C 240.47 87.26 232.50 93.30 238.17 97.81 C 243.89 101.46 254.16 98.23 255.41 90.89 C 259.64 88.83 264.06 94.94 259.81 97.84 C 252.57 101.77 242.61 112.76 234.72 104.31 C 231.59 102.08 230.56 98.35 231.71 94.74 C 228.36 98.67 227.75 104.05 228.83 108.96 C 228.37 108.72 227.45 108.24 226.98 108.00 C 223.64 101.69 229.02 95.41 232.77 90.74 Z" fill="#cf9147" opacity="1.00" stroke="#cf9147" stroke-width="0.25"/>
<path d="M 250.32 84.29 C 257.57 84.34 265.99 83.87 272.15 88.54 C 267.49 97.35 263.79 108.39 252.84 110.91 C 245.87 111.25 238.05 110.01 232.93 104.88 C 228.68 106.53 230.77 110.94 231.28 114.37 C 228.95 113.02 227.24 110.71 226.98 108.00 C 227.45 108.24 228.37 108.72 228.83 108.96 C 227.75 104.05 228.36 98.67 231.71 94.74 C 230.56 98.35 231.59 102.08 234.72 104.31 C 242.61 112.76 252.57 101.77 259.81 97.84 C 264.06 94.94 259.64 88.83 255.41 90.89 C 252.84 87.87 249.39 85.05 245.13 86.20 C 242.15 83.92 248.33 84.78 250.32 84.29 Z" fill="#c17932" opacity="1.00" stroke="#c17932" stroke-width="0.25"/>
<path d="M 245.13 86.20 C 249.39 85.05 252.84 87.87 255.41 90.89 C 254.16 98.23 243.89 101.46 238.17 97.81 C 232.50 93.30 240.47 87.26 245.13 86.20 Z" fill="#fcf7eb" opacity="1.00" stroke="#fcf7eb" stroke-width="0.25"/>
<path d="M 252.84 110.91 C 263.79 108.39 267.49 97.35 272.15 88.54 C 276.02 91.01 279.77 94.27 281.38 98.68 C 275.98 110.19 261.01 113.11 250.07 117.07 C 246.78 119.03 240.78 114.61 239.68 118.93 C 236.96 117.61 232.74 117.26 231.28 114.37 C 230.77 110.94 228.68 106.53 232.93 104.88 C 238.05 110.01 245.87 111.25 252.84 110.91 Z" fill="#b06625" opacity="1.00" stroke="#b06625" stroke-width="0.25"/>
<path d="M 370.97 95.88 C 378.17 98.07 388.17 103.35 386.22 112.12 C 383.04 121.10 372.79 125.95 363.92 127.03 C 365.07 123.33 369.99 122.31 372.02 118.98 C 377.04 112.03 375.71 102.56 370.97 95.88 Z" fill="#e9e2db" opacity="1.00" stroke="#e9e2db" stroke-width="0.25"/>
<path d="M 281.38 98.68 C 284.39 102.93 280.53 108.51 283.67 112.47 C 275.08 124.55 252.48 123.49 239.68 118.93 C 240.78 114.61 246.78 119.03 250.07 117.07 C 261.01 113.11 275.98 110.19 281.38 98.68 Z" fill="#9b521c" opacity="1.00" stroke="#9b521c" stroke-width="0.25"/>
<path d="M 291.98 110.82 C 291.81 109.52 291.92 108.17 292.57 107.00 C 293.67 107.85 293.82 111.00 291.98 110.82 Z" fill="#92857f" opacity="1.00" stroke="#92857f" stroke-width="0.25"/>
<path d="M 296.04 117.03 C 292.50 117.44 288.09 117.87 290.70 113.94 C 290.36 117.61 295.67 114.53 296.04 117.03 Z" fill="#7b675f" opacity="1.00" stroke="#7b675f" stroke-width="0.25"/>
<path d="M 281.29 122.26 C 285.29 120.13 289.92 122.01 294.17 122.19 C 292.05 123.76 289.93 125.32 287.82 126.90 C 284.61 128.41 281.22 129.52 277.83 130.55 C 275.58 130.99 273.33 131.45 271.10 131.98 C 266.79 132.07 262.51 132.07 258.22 132.19 C 248.96 130.53 236.55 130.35 230.70 122.02 C 246.96 126.54 265.11 129.18 281.29 122.26 Z" fill="#7e401d" opacity="1.00" stroke="#7e401d" stroke-width="0.25"/>
<path d="M 166.81 145.87 C 186.11 133.70 207.76 123.98 230.70 122.02 C 236.55 130.35 248.96 130.53 258.22 132.19 C 248.95 138.12 243.25 148.02 234.28 154.32 C 226.63 159.65 217.56 162.38 208.58 164.47 C 204.43 166.18 198.12 164.30 195.59 168.87 C 193.80 169.14 189.60 168.13 192.03 170.87 C 185.64 169.87 179.39 168.19 173.07 166.90 C 177.45 154.42 188.22 145.97 198.73 138.70 C 198.82 138.26 199.00 137.39 199.09 136.96 C 185.69 138.66 172.83 146.55 163.95 156.42 C 161.19 161.55 155.92 161.95 150.76 162.89 C 153.60 155.49 161.07 150.88 166.81 145.87 Z" fill="#d79344" opacity="1.00" stroke="#d79344" stroke-width="0.25"/>
<path d="M 294.17 122.19 C 301.71 123.45 309.00 125.86 316.21 128.36 C 313.74 128.90 311.24 128.42 308.77 128.18 C 310.45 129.60 318.90 131.57 313.84 132.34 C 308.92 131.15 304.02 129.96 299.14 128.63 C 295.43 127.67 291.62 127.23 287.82 126.90 C 289.93 125.32 292.05 123.76 294.17 122.19 Z" fill="#f2d998" opacity="1.00" stroke="#f2d998" stroke-width="0.25"/>
<path d="M 277.83 130.55 C 281.22 129.52 284.61 128.41 287.82 126.90 C 294.62 134.27 290.85 145.01 290.54 153.75 C 288.76 159.27 287.67 165.25 283.91 169.87 C 280.47 173.51 274.79 172.86 270.78 174.86 C 272.58 175.07 274.40 175.21 276.22 175.30 C 266.44 176.39 256.59 175.88 246.78 176.15 C 228.35 176.58 210.10 174.15 192.03 170.87 C 189.60 168.13 193.80 169.14 195.59 168.87 C 196.61 169.24 197.65 169.58 198.70 169.89 C 216.32 175.10 234.93 171.95 252.78 174.81 C 262.81 169.20 273.10 162.48 276.84 150.88 C 278.02 144.33 278.38 137.64 279.54 131.08 C 279.12 130.95 278.26 130.68 277.83 130.55 Z" fill="#b96d2c" opacity="1.00" stroke="#b96d2c" stroke-width="0.25"/>
<path d="M 287.82 126.90 C 291.62 127.23 295.43 127.67 299.14 128.63 C 298.57 128.87 297.42 129.36 296.85 129.60 C 301.43 130.48 305.78 132.17 310.10 133.86 C 304.40 132.52 304.31 136.15 307.86 139.45 C 309.84 146.60 307.04 153.92 307.17 161.15 C 306.87 167.86 300.92 171.12 295.12 172.17 C 295.37 172.47 295.86 173.09 296.11 173.40 C 289.51 174.29 282.86 174.89 276.22 175.30 C 274.40 175.21 272.58 175.07 270.78 174.86 C 274.79 172.86 280.47 173.51 283.91 169.87 C 287.67 165.25 288.76 159.27 290.54 153.75 C 290.85 145.01 294.62 134.27 287.82 126.90 Z" fill="#ab6029" opacity="1.00" stroke="#ab6029" stroke-width="0.25"/>
<path d="M 308.77 128.18 C 311.24 128.42 313.74 128.90 316.21 128.36 C 331.59 134.21 347.58 141.53 358.08 154.66 C 357.11 156.60 357.68 158.66 358.14 160.65 C 356.04 159.54 351.17 162.19 351.19 159.26 C 351.37 158.71 351.74 157.61 351.92 157.05 C 342.94 144.06 327.83 138.26 313.84 132.34 C 318.90 131.57 310.45 129.60 308.77 128.18 Z" fill="#e5b872" opacity="1.00" stroke="#e5b872" stroke-width="0.25"/>
<path d="M 296.85 129.60 C 297.42 129.36 298.57 128.87 299.14 128.63 C 304.02 129.96 308.92 131.15 313.84 132.34 C 327.83 138.26 342.94 144.06 351.92 157.05 C 351.74 157.61 351.37 158.71 351.19 159.26 C 346.76 161.83 341.80 163.20 337.10 165.16 C 330.07 167.26 322.92 169.14 315.66 170.29 C 315.23 170.14 314.37 169.84 313.94 169.69 C 318.10 165.65 326.14 165.19 327.81 159.02 C 326.04 149.83 322.78 137.04 312.25 134.67 C 311.72 134.47 310.64 134.06 310.10 133.86 C 305.78 132.17 301.43 130.48 296.85 129.60 Z" fill="#8e491b" opacity="1.00" stroke="#8e491b" stroke-width="0.25"/>
<path d="M 271.10 131.98 C 273.33 131.45 275.58 130.99 277.83 130.55 C 278.26 130.68 279.12 130.95 279.54 131.08 C 278.38 137.64 278.02 144.33 276.84 150.88 C 273.10 162.48 262.81 169.20 252.78 174.81 C 234.93 171.95 216.32 175.10 198.70 169.89 C 208.89 165.64 220.23 165.24 230.68 161.73 C 237.52 159.76 244.88 163.79 251.39 160.40 C 260.67 155.88 266.30 145.90 267.87 135.89 C 268.06 134.02 269.81 133.09 271.10 131.98 Z" fill="#c6792f" opacity="1.00" stroke="#c6792f" stroke-width="0.25"/>
<path d="M 258.22 132.19 C 262.51 132.07 266.79 132.07 271.10 131.98 C 269.81 133.09 268.06 134.02 267.87 135.89 C 266.30 145.90 260.67 155.88 251.39 160.40 C 244.88 163.79 237.52 159.76 230.68 161.73 C 220.23 165.24 208.89 165.64 198.70 169.89 C 197.65 169.58 196.61 169.24 195.59 168.87 C 198.12 164.30 204.43 166.18 208.58 164.47 C 217.56 162.38 226.63 159.65 234.28 154.32 C 243.25 148.02 248.95 138.12 258.22 132.19 Z" fill="#d08437" opacity="1.00" stroke="#d08437" stroke-width="0.25"/>
<path d="M 213.39 134.44 C 219.32 132.13 230.87 134.31 229.02 142.93 C 223.54 151.36 212.76 155.10 202.97 154.07 C 199.18 154.24 194.71 150.30 196.27 146.28 C 199.73 139.89 206.45 135.96 213.39 134.44 Z" fill="#fdfaf3" opacity="1.00" stroke="#fdfaf3" stroke-width="0.25"/>
<path d="M 307.86 139.45 C 304.31 136.15 304.40 132.52 310.10 133.86 C 310.64 134.06 311.72 134.47 312.25 134.67 C 314.44 138.22 310.84 139.24 307.86 139.45 Z" fill="#d38642" opacity="1.00" stroke="#d38642" stroke-width="0.25"/>
<path d="M 312.25 134.67 C 322.78 137.04 326.04 149.83 327.81 159.02 C 326.14 165.19 318.10 165.65 313.94 169.69 C 314.37 169.84 315.23 170.14 315.66 170.29 L 316.34 170.76 C 309.56 171.36 302.86 172.64 296.11 173.40 C 295.86 173.09 295.37 172.47 295.12 172.17 C 300.92 171.12 306.87 167.86 307.17 161.15 C 307.04 153.92 309.84 146.60 307.86 139.45 C 310.84 139.24 314.44 138.22 312.25 134.67 Z" fill="#9d5323" opacity="1.00" stroke="#9d5323" stroke-width="0.25"/>
<path d="M 163.95 156.42 C 172.83 146.55 185.69 138.66 199.09 136.96 C 199.00 137.39 198.82 138.26 198.73 138.70 C 188.22 145.97 177.45 154.42 173.07 166.90 C 172.19 168.80 171.13 170.89 171.80 173.03 C 168.68 172.00 164.21 171.37 163.02 167.92 C 163.68 164.12 165.58 160.31 163.95 156.42 Z" fill="#c3732b" opacity="1.00" stroke="#c3732b" stroke-width="0.25"/>
<path d="M 364.11 150.43 C 365.86 149.51 369.92 148.90 370.76 151.00 C 368.42 151.29 366.20 151.10 364.11 150.43 Z" fill="#736055" opacity="1.00" stroke="#736055" stroke-width="0.25"/>
<path d="M 191.25 153.18 C 196.62 150.65 197.78 159.18 192.92 159.99 C 188.29 161.45 187.69 154.75 191.25 153.18 Z" fill="#fcefd4" opacity="1.00" stroke="#fcefd4" stroke-width="0.25"/>
<path d="M 124.73 165.94 C 130.68 159.84 139.05 157.16 147.07 154.99 C 145.86 157.40 143.86 159.45 143.00 162.03 C 141.12 172.71 154.92 174.09 162.17 177.65 C 159.87 177.33 159.58 179.02 161.85 179.28 C 167.78 181.94 177.46 180.51 180.22 187.89 C 174.61 187.45 182.35 191.90 183.85 190.39 C 190.18 190.71 197.23 195.02 203.13 191.03 C 211.61 192.47 220.18 193.10 228.78 193.30 C 233.41 193.70 238.07 193.94 242.73 194.18 C 244.19 195.14 245.72 196.03 247.22 196.94 C 244.01 196.98 240.88 197.12 237.70 197.31 C 218.75 197.00 199.68 196.53 181.01 192.96 C 163.14 188.79 143.61 185.84 129.04 173.96 C 126.80 171.78 125.58 168.89 124.73 165.94 Z" fill="#d2904e" opacity="1.00" stroke="#d2904e" stroke-width="0.25"/>
<path d="M 358.08 154.66 C 362.21 157.73 365.71 165.29 359.16 167.58 C 358.83 166.89 358.18 165.52 357.85 164.83 C 358.01 163.44 358.55 162.04 358.14 160.65 C 357.68 158.66 357.11 156.60 358.08 154.66 Z" fill="#bd8754" opacity="1.00" stroke="#bd8754" stroke-width="0.25"/>
<path d="M 368.13 154.86 C 374.53 155.75 380.50 158.16 385.75 161.89 C 389.10 165.19 392.83 169.20 391.93 174.32 C 390.90 164.65 379.36 162.63 371.16 161.08 C 370.35 158.91 369.23 156.89 368.13 154.86 Z" fill="#c48a54" opacity="1.00" stroke="#c48a54" stroke-width="0.25"/>
<path d="M 150.76 162.89 C 155.92 161.95 161.19 161.55 163.95 156.42 C 165.58 160.31 163.68 164.12 163.02 167.92 C 164.21 171.37 168.68 172.00 171.80 173.03 C 205.44 182.71 240.79 182.42 275.46 181.94 C 264.10 184.72 249.85 181.20 240.01 183.98 C 252.10 184.23 264.20 183.67 276.29 184.20 C 272.58 185.80 268.57 186.54 264.74 187.75 C 256.75 188.00 248.76 188.00 240.77 188.22 C 230.41 187.95 219.99 187.95 209.72 186.41 C 211.56 186.07 216.09 186.29 212.61 184.34 C 201.62 182.25 190.37 180.68 179.28 179.10 C 169.15 175.90 153.23 175.28 150.76 162.89 Z" fill="#a15d25" opacity="1.00" stroke="#a15d25" stroke-width="0.25"/>
<path d="M 337.10 165.16 C 341.80 163.20 346.76 161.83 351.19 159.26 C 351.17 162.19 356.04 159.54 358.14 160.65 C 358.55 162.04 358.01 163.44 357.85 164.83 C 350.72 166.65 344.33 170.63 337.11 172.19 C 337.11 170.43 337.10 166.91 337.10 165.16 Z" fill="#a05c2c" opacity="1.00" stroke="#a05c2c" stroke-width="0.25"/>
<path d="M 385.75 161.89 C 387.20 161.21 388.65 160.54 390.10 159.87 C 393.44 162.77 397.21 166.65 398.08 171.20 C 397.96 173.06 397.95 174.94 398.08 176.81 C 398.73 183.61 389.83 185.92 388.00 190.91 C 397.24 204.27 404.89 218.79 410.28 234.13 C 408.36 234.72 406.81 236.14 404.83 236.54 C 399.60 223.03 393.60 209.75 385.25 197.84 C 383.94 195.86 382.74 193.77 381.08 192.05 C 372.97 195.75 364.48 198.50 355.83 200.64 C 341.44 204.58 326.56 206.23 311.84 208.45 C 306.64 208.99 301.46 209.66 296.29 210.34 C 293.40 210.36 290.55 210.20 287.71 210.64 C 284.86 210.83 282.06 211.04 279.23 211.25 C 264.08 210.95 248.91 210.74 233.77 211.23 C 230.56 211.08 227.40 211.04 224.21 210.84 C 221.38 210.56 218.60 210.28 215.77 210.17 C 201.30 208.77 186.66 207.78 172.52 204.20 C 174.00 202.42 175.67 200.69 178.15 200.63 C 218.52 206.30 259.73 208.41 300.28 203.86 C 325.21 203.04 349.94 197.20 373.61 189.50 C 378.90 187.75 384.11 185.25 388.17 181.37 C 389.90 179.34 391.39 176.96 391.93 174.32 C 392.83 169.20 389.10 165.19 385.75 161.89 Z" fill="#3e1608" opacity="1.00" stroke="#3e1608" stroke-width="0.25"/>
<path d="M 371.16 161.08 C 379.36 162.63 390.90 164.65 391.93 174.32 C 391.39 176.96 389.90 179.34 388.17 181.37 C 386.84 179.54 385.75 174.79 382.70 176.65 C 368.54 183.40 353.47 187.98 337.90 190.01 C 338.04 188.14 341.90 183.47 338.32 184.08 C 332.09 183.96 325.86 185.66 319.73 183.66 C 334.88 181.63 349.91 178.25 363.91 171.98 C 367.62 170.57 371.47 169.49 375.10 167.87 C 373.94 165.91 372.25 164.38 370.70 162.75 C 370.82 162.33 371.05 161.50 371.16 161.08 Z" fill="#975229" opacity="1.00" stroke="#975229" stroke-width="0.25"/>
<path d="M 363.91 171.98 C 366.07 168.83 368.30 165.72 370.70 162.75 C 372.25 164.38 373.94 165.91 375.10 167.87 C 371.47 169.49 367.62 170.57 363.91 171.98 Z" fill="#753416" opacity="1.00" stroke="#753416" stroke-width="0.25"/>
<path d="M 315.66 170.29 C 322.92 169.14 330.07 167.26 337.10 165.16 C 337.10 166.91 337.11 170.43 337.11 172.19 C 332.30 173.91 327.32 175.11 322.32 176.09 C 320.42 174.19 318.63 172.17 316.34 170.76 L 315.66 170.29 Z" fill="#cd8752" opacity="1.00" stroke="#cd8752" stroke-width="0.25"/>
<path d="M 337.11 172.19 C 344.33 170.63 350.72 166.65 357.85 164.83 C 358.18 165.52 358.83 166.89 359.16 167.58 C 340.19 177.90 316.56 180.95 297.00 185.98 C 298.81 186.06 302.43 186.21 304.24 186.29 C 299.54 186.81 294.84 187.00 290.14 187.30 C 285.35 187.25 292.29 185.04 293.33 183.30 C 289.45 183.01 285.58 182.70 281.72 182.36 C 295.34 180.89 309.13 180.14 322.32 176.09 C 327.32 175.11 332.30 173.91 337.11 172.19 Z" fill="#743714" opacity="1.00" stroke="#743714" stroke-width="0.25"/>
<path d="M 129.56 185.47 C 122.37 181.70 117.93 172.17 124.73 165.94 C 125.58 168.89 126.80 171.78 129.04 173.96 C 143.61 185.84 163.14 188.79 181.01 192.96 C 181.26 193.45 181.74 194.44 181.98 194.93 C 176.61 194.20 171.56 195.93 166.73 197.99 C 153.85 195.56 141.27 191.32 129.56 185.47 Z" fill="#7d3d14" opacity="1.00" stroke="#7d3d14" stroke-width="0.25"/>
<path d="M 173.07 166.90 C 179.39 168.19 185.64 169.87 192.03 170.87 C 210.10 174.15 228.35 176.58 246.78 176.15 C 256.49 177.58 265.58 180.92 275.46 181.94 C 240.79 182.42 205.44 182.71 171.80 173.03 C 171.13 170.89 172.19 168.80 173.07 166.90 Z" fill="#f4c999" opacity="1.00" stroke="#f4c999" stroke-width="0.25"/>
<path d="M 116.02 179.02 C 114.29 178.32 114.30 171.71 115.99 170.98 C 115.98 173.65 115.99 176.33 116.02 179.02 Z" fill="#92807d" opacity="1.00" stroke="#92807d" stroke-width="0.25"/>
<path d="M 296.11 173.40 C 302.86 172.64 309.56 171.36 316.34 170.76 C 318.63 172.17 320.42 174.19 322.32 176.09 C 309.13 180.14 295.34 180.89 281.72 182.36 C 280.16 182.25 277.03 182.04 275.46 181.94 C 265.58 180.92 256.49 177.58 246.78 176.15 C 256.59 175.88 266.44 176.39 276.22 175.30 C 282.86 174.89 289.51 174.29 296.11 173.40 Z" fill="#e4ac7a" opacity="1.00" stroke="#e4ac7a" stroke-width="0.25"/>
<path d="M 398.08 171.20 C 399.86 171.72 399.85 176.27 398.08 176.81 C 397.95 174.94 397.96 173.06 398.08 171.20 Z" fill="#b6aca8" opacity="1.00" stroke="#b6aca8" stroke-width="0.25"/>
<path d="M 67.91 177.02 C 70.23 175.17 80.83 175.26 83.00 176.97 C 77.97 177.03 72.94 176.97 67.91 177.02 Z" fill="#aa9d97" opacity="1.00" stroke="#aa9d97" stroke-width="0.25"/>
<path d="M 382.70 176.65 C 385.75 174.79 386.84 179.54 388.17 181.37 C 384.11 185.25 378.90 187.75 373.61 189.50 C 349.94 197.20 325.21 203.04 300.28 203.86 C 299.45 200.72 296.86 199.85 293.98 200.94 C 295.40 199.33 296.88 197.77 298.23 196.11 C 311.54 194.72 324.97 193.66 337.90 190.01 C 353.47 187.98 368.54 183.40 382.70 176.65 Z" fill="#793a15" opacity="1.00" stroke="#793a15" stroke-width="0.25"/>
<path d="M 62.16 178.01 C 62.01 176.17 65.14 176.34 65.99 177.44 C 64.82 178.08 63.47 178.19 62.16 178.01 Z" fill="#918882" opacity="1.00" stroke="#918882" stroke-width="0.25"/>
<path d="M 161.85 179.28 C 159.58 179.02 159.87 177.33 162.17 177.65 C 166.68 179.05 171.21 180.37 175.83 181.41 C 187.02 183.80 198.49 184.28 209.72 186.41 C 219.99 187.95 230.41 187.95 240.77 188.22 C 244.92 188.63 249.08 189.01 253.25 189.29 C 250.23 192.67 236.78 187.15 241.99 192.05 C 237.59 192.49 233.19 192.95 228.78 193.30 C 220.18 193.10 211.61 192.47 203.13 191.03 C 205.13 187.23 199.26 183.09 199.45 188.13 C 193.03 188.06 186.61 186.53 180.22 187.89 C 177.46 180.51 167.78 181.94 161.85 179.28 Z" fill="#ecb97e" opacity="1.00" stroke="#ecb97e" stroke-width="0.25"/>
<path d="M 179.28 179.10 C 190.37 180.68 201.62 182.25 212.61 184.34 C 216.09 186.29 211.56 186.07 209.72 186.41 C 198.49 184.28 187.02 183.80 175.83 181.41 C 177.29 181.09 178.96 180.85 179.28 179.10 Z" fill="#844512" opacity="1.00" stroke="#844512" stroke-width="0.25"/>
<path d="M 46.87 189.15 C 68.49 177.49 96.49 180.26 115.99 195.02 C 121.20 195.61 118.61 199.44 116.69 201.11 C 113.44 198.91 110.33 196.52 107.03 194.40 C 102.93 191.62 98.08 190.25 93.43 188.68 C 85.14 186.04 76.26 185.65 67.63 185.59 C 60.83 185.09 54.31 186.55 49.18 191.01 C 48.41 190.39 47.65 189.77 46.87 189.15 Z" fill="#d8a14d" opacity="1.00" stroke="#d8a14d" stroke-width="0.25"/>
<path d="M 275.46 181.94 C 277.03 182.04 280.16 182.25 281.72 182.36 C 285.58 182.70 289.45 183.01 293.33 183.30 C 292.29 185.04 285.35 187.25 290.14 187.30 C 284.53 187.86 278.90 188.00 273.28 188.35 C 270.43 188.13 267.58 187.93 264.74 187.75 C 268.57 186.54 272.58 185.80 276.29 184.20 C 264.20 183.67 252.10 184.23 240.01 183.98 C 249.85 181.20 264.10 184.72 275.46 181.94 Z" fill="#8d4a17" opacity="1.00" stroke="#8d4a17" stroke-width="0.25"/>
<path d="M 304.24 186.29 C 309.44 185.65 314.58 184.60 319.73 183.66 C 325.86 185.66 332.09 183.96 338.32 184.08 C 337.13 187.77 331.82 186.71 328.99 187.96 C 300.45 192.37 271.57 193.84 242.73 194.18 C 238.07 193.94 233.41 193.70 228.78 193.30 C 233.19 192.95 237.59 192.49 241.99 192.05 C 236.78 187.15 250.23 192.67 253.25 189.29 C 259.90 188.77 266.71 189.72 273.28 188.35 C 278.90 188.00 284.53 187.86 290.14 187.30 C 294.84 187.00 299.54 186.81 304.24 186.29 Z" fill="#e1a163" opacity="1.00" stroke="#e1a163" stroke-width="0.25"/>
<path d="M 338.32 184.08 C 341.90 183.47 338.04 188.14 337.90 190.01 C 324.97 193.66 311.54 194.72 298.23 196.11 C 278.06 196.34 257.80 198.83 237.70 197.31 C 240.88 197.12 244.01 196.98 247.22 196.94 C 245.72 196.03 244.19 195.14 242.73 194.18 C 271.57 193.84 300.45 192.37 328.99 187.96 C 331.82 186.71 337.13 187.77 338.32 184.08 Z" fill="#b2682d" opacity="1.00" stroke="#b2682d" stroke-width="0.25"/>
<path d="M 67.63 185.59 C 76.26 185.65 85.14 186.04 93.43 188.68 C 93.00 193.91 87.75 195.68 85.62 199.91 C 74.66 199.26 62.70 197.16 52.19 201.16 C 46.68 202.56 41.02 202.56 35.38 202.44 C 28.68 210.45 22.98 219.62 21.05 230.05 C 17.94 241.96 20.58 254.31 18.41 266.30 C 16.67 262.11 16.09 257.51 15.99 253.01 C 15.99 248.33 16.02 243.66 15.99 238.98 C 16.19 218.55 27.97 197.74 46.87 189.15 C 47.65 189.77 48.41 190.39 49.18 191.01 C 48.15 192.94 46.13 195.10 47.56 197.37 C 48.49 201.33 54.08 198.04 56.86 197.82 C 61.48 195.71 69.34 196.74 70.99 190.89 C 71.77 188.31 69.22 187.00 67.63 185.59 Z" fill="#cc8938" opacity="1.00" stroke="#cc8938" stroke-width="0.25"/>
<path d="M 49.18 191.01 C 54.31 186.55 60.83 185.09 67.63 185.59 C 69.22 187.00 71.77 188.31 70.99 190.89 C 69.34 196.74 61.48 195.71 56.86 197.82 C 54.08 198.04 48.49 201.33 47.56 197.37 C 46.13 195.10 48.15 192.94 49.18 191.01 Z" fill="#fbf7e9" opacity="1.00" stroke="#fbf7e9" stroke-width="0.25"/>
<path d="M 199.45 188.13 C 199.26 183.09 205.13 187.23 203.13 191.03 C 197.23 195.02 190.18 190.71 183.85 190.39 C 182.35 191.90 174.61 187.45 180.22 187.89 C 186.61 186.53 193.03 188.06 199.45 188.13 Z" fill="#fbe5c1" opacity="1.00" stroke="#fbe5c1" stroke-width="0.25"/>
<path d="M 240.77 188.22 C 248.76 188.00 256.75 188.00 264.74 187.75 C 267.58 187.93 270.43 188.13 273.28 188.35 C 266.71 189.72 259.90 188.77 253.25 189.29 C 249.08 189.01 244.92 188.63 240.77 188.22 Z" fill="#c18345" opacity="1.00" stroke="#c18345" stroke-width="0.25"/>
<path d="M 93.43 188.68 C 98.08 190.25 102.93 191.62 107.03 194.40 C 106.98 198.90 104.58 203.61 100.90 205.93 C 95.82 204.00 90.92 201.39 85.62 199.91 C 87.75 195.68 93.00 193.91 93.43 188.68 Z" fill="#c07126" opacity="1.00" stroke="#c07126" stroke-width="0.25"/>
<path d="M 355.83 200.64 C 364.48 198.50 372.97 195.75 381.08 192.05 C 382.74 193.77 383.94 195.86 385.25 197.84 C 375.62 202.54 365.22 205.19 354.89 207.87 C 349.62 208.78 344.31 209.47 339.00 210.12 C 342.74 203.18 352.58 205.19 358.08 201.12 C 357.52 201.00 356.39 200.76 355.83 200.64 Z" fill="#d3992a" opacity="1.00" stroke="#d3992a" stroke-width="0.25"/>
<path d="M 128.01 196.95 C 129.25 195.48 130.14 192.01 132.65 193.34 C 145.55 198.20 158.85 202.20 172.52 204.20 C 186.66 207.78 201.30 208.77 215.77 210.17 C 218.56 210.43 221.39 210.77 224.21 210.84 C 227.40 211.04 230.56 211.08 233.77 211.23 C 248.86 212.48 264.13 212.47 279.23 211.25 C 282.06 211.04 284.86 210.83 287.71 210.64 C 290.54 210.60 293.46 210.87 296.29 210.34 C 301.46 209.66 306.64 208.99 311.84 208.45 C 312.43 208.79 313.61 209.46 314.20 209.80 C 309.80 210.60 305.33 210.72 300.90 211.18 C 301.67 213.85 305.28 213.83 307.32 215.28 C 285.21 217.65 262.98 216.79 240.79 217.19 C 236.78 217.16 232.77 217.17 228.77 217.21 C 222.76 216.57 216.71 216.10 210.67 216.29 C 206.72 216.59 199.30 212.23 197.96 215.94 C 194.41 211.96 189.17 211.87 184.20 211.73 C 171.76 209.59 159.12 207.91 147.12 203.86 C 140.28 202.98 134.18 199.78 128.01 196.95 Z" fill="#eec04d" opacity="1.00" stroke="#eec04d" stroke-width="0.25"/>
<path d="M 181.01 192.96 C 199.68 196.53 218.75 197.00 237.70 197.31 C 257.80 198.83 278.06 196.34 298.23 196.11 C 296.88 197.77 295.40 199.33 293.98 200.94 C 296.86 199.85 299.45 200.72 300.28 203.86 C 259.73 208.41 218.52 206.30 178.15 200.63 C 174.32 199.82 170.52 198.93 166.73 197.99 C 171.56 195.93 176.61 194.20 181.98 194.93 C 181.74 194.44 181.26 193.45 181.01 192.96 Z" fill="#894318" opacity="1.00" stroke="#894318" stroke-width="0.25"/>
<path d="M 100.90 205.93 C 104.58 203.61 106.98 198.90 107.03 194.40 C 110.33 196.52 113.44 198.91 116.69 201.11 C 113.23 209.91 106.86 217.40 102.85 226.00 C 98.07 224.51 98.44 215.96 93.81 213.20 C 81.56 204.35 64.87 204.00 51.21 209.65 C 47.00 207.50 48.65 203.05 52.19 201.16 C 62.70 197.16 74.66 199.26 85.62 199.91 C 90.92 201.39 95.82 204.00 100.90 205.93 Z" fill="#a1551f" opacity="1.00" stroke="#a1551f" stroke-width="0.25"/>
<path d="M 128.01 196.95 C 134.18 199.78 140.28 202.98 147.12 203.86 C 145.83 203.90 144.55 204.03 143.28 204.25 C 139.87 210.66 136.91 217.30 134.16 224.02 C 127.28 228.79 128.29 238.61 124.26 245.26 C 121.10 248.44 118.02 252.07 114.11 254.29 C 114.79 249.47 115.52 244.65 115.86 239.79 C 119.72 228.02 126.11 217.26 130.87 205.85 C 131.65 202.81 128.91 200.49 126.95 198.61 C 127.22 198.20 127.75 197.37 128.01 196.95 Z" fill="#fbe16b" opacity="1.00" stroke="#fbe16b" stroke-width="0.25"/>
<path d="M 354.89 207.87 C 365.22 205.19 375.62 202.54 385.25 197.84 C 393.60 209.75 399.60 223.03 404.83 236.54 C 404.85 236.87 404.90 237.52 404.92 237.85 C 399.75 239.00 395.11 241.69 390.34 243.87 C 387.53 245.14 384.90 246.76 382.05 247.92 C 380.10 243.38 383.34 237.69 378.64 234.32 C 371.61 228.74 367.54 219.35 358.83 216.17 C 357.69 213.32 356.93 210.26 354.89 207.87 Z" fill="#fbca4c" opacity="1.00" stroke="#fbca4c" stroke-width="0.25"/>
<path d="M 92.70 287.76 C 96.38 255.81 110.55 225.88 126.95 198.61 C 128.91 200.49 131.65 202.81 130.87 205.85 C 126.11 217.26 119.72 228.02 115.86 239.79 C 107.72 257.44 104.99 276.91 100.55 295.64 C 99.45 299.16 96.85 294.71 95.65 293.40 C 92.17 290.89 94.25 298.15 93.36 300.28 C 93.13 296.10 92.91 291.93 92.70 287.76 Z" fill="#faf2aa" opacity="1.00" stroke="#faf2aa" stroke-width="0.25"/>
<path d="M 35.38 202.44 C 41.02 202.56 46.68 202.56 52.19 201.16 C 48.65 203.05 47.00 207.50 51.21 209.65 C 44.30 213.04 38.56 218.29 34.67 224.95 C 24.12 244.13 28.69 267.69 36.90 286.94 C 32.57 288.73 30.71 292.63 31.54 297.18 C 25.07 288.16 19.68 277.27 18.41 266.30 C 20.58 254.31 17.94 241.96 21.05 230.05 C 22.98 219.62 28.68 210.45 35.38 202.44 Z" fill="#b16521" opacity="1.00" stroke="#b16521" stroke-width="0.25"/>
<path d="M 311.84 208.45 C 326.56 206.23 341.44 204.58 355.83 200.64 C 356.39 200.76 357.52 201.00 358.08 201.12 C 352.58 205.19 342.74 203.18 339.00 210.12 C 335.87 210.62 332.78 211.05 329.68 211.64 C 325.08 211.54 320.56 212.25 316.14 213.44 C 313.04 213.14 310.40 215.29 307.32 215.28 C 305.28 213.83 301.67 213.85 300.90 211.18 C 305.33 210.72 309.80 210.60 314.20 209.80 C 313.61 209.46 312.43 208.79 311.84 208.45 Z" fill="#dfab3d" opacity="1.00" stroke="#dfab3d" stroke-width="0.25"/>
<path d="M 454.03 203.98 C 457.23 202.90 468.62 201.32 472.00 203.97 C 466.00 204.00 460.02 204.00 454.03 203.98 Z" fill="#77675d" opacity="1.00" stroke="#77675d" stroke-width="0.25"/>
<path d="M 143.28 204.25 C 144.55 204.03 145.83 203.90 147.12 203.86 C 159.12 207.91 171.76 209.59 184.20 211.73 C 182.19 212.36 180.19 213.04 178.18 213.66 C 174.21 211.25 170.75 213.56 167.41 215.77 C 167.03 210.96 161.13 212.58 158.94 209.04 C 157.69 212.57 154.50 213.31 151.19 212.38 C 147.58 216.83 143.22 220.35 138.33 223.27 C 140.70 227.98 137.06 229.89 134.27 232.30 C 132.97 236.35 133.04 240.80 130.43 244.39 C 128.13 252.61 130.62 262.70 124.88 269.85 C 122.62 272.48 121.59 277.36 124.22 279.83 C 132.32 279.58 141.51 276.60 148.11 282.81 C 153.43 284.29 152.30 290.96 156.31 293.69 C 161.46 295.26 166.91 294.34 172.16 293.86 C 173.84 294.83 175.08 296.38 176.33 297.83 C 172.29 295.20 168.14 295.75 163.80 297.29 C 158.91 297.14 153.86 296.61 149.15 298.27 C 141.33 293.67 131.72 300.61 124.21 295.80 C 116.13 279.37 125.31 261.59 126.88 244.80 C 128.73 237.68 131.66 230.91 134.16 224.02 C 136.91 217.30 139.87 210.66 143.28 204.25 Z" fill="#fef79f" opacity="1.00" stroke="#fef79f" stroke-width="0.25"/>
<path d="M 439.06 209.08 C 443.62 206.42 448.65 204.06 454.03 203.98 C 460.02 204.00 466.00 204.00 472.00 203.97 C 473.37 203.89 474.70 204.05 476.01 204.45 C 477.18 205.07 478.52 205.19 479.83 205.03 C 489.51 208.27 501.17 212.24 505.71 222.35 C 509.11 234.58 494.33 238.90 487.31 245.35 C 476.32 254.80 471.85 269.40 468.51 283.02 C 467.83 284.53 467.82 286.19 468.02 287.81 C 468.05 289.26 467.88 290.68 467.51 292.09 C 467.37 293.52 467.08 296.39 466.93 297.82 C 466.85 301.23 466.58 304.72 465.51 308.00 C 464.93 309.19 464.81 310.52 464.96 311.83 C 462.51 323.27 457.83 335.20 449.10 343.12 C 444.37 342.51 439.61 342.67 434.90 342.00 C 451.01 330.11 458.30 310.26 459.99 290.96 C 461.80 270.66 469.42 248.87 486.94 236.96 C 492.06 233.27 504.56 228.82 498.26 220.80 C 487.64 209.79 470.41 207.00 455.79 208.62 C 439.14 209.21 433.01 227.52 420.92 235.92 C 416.85 238.38 412.84 241.23 408.16 242.36 C 405.11 242.79 405.17 240.05 404.92 237.85 C 404.90 237.52 404.85 236.87 404.83 236.54 C 406.81 236.14 408.36 234.72 410.28 234.13 C 423.62 231.05 427.17 214.68 439.06 209.08 Z" fill="#452410" opacity="1.00" stroke="#452410" stroke-width="0.25"/>
<path d="M 476.01 204.45 C 476.84 203.32 480.00 203.17 479.83 205.03 C 478.52 205.19 477.18 205.07 476.01 204.45 Z" fill="#b2a099" opacity="1.00" stroke="#b2a099" stroke-width="0.25"/>
<path d="M 339.00 210.12 C 344.31 209.47 349.62 208.78 354.89 207.87 C 356.93 210.26 357.69 213.32 358.83 216.17 C 367.54 219.35 371.61 228.74 378.64 234.32 C 383.34 237.69 380.10 243.38 382.05 247.92 C 384.90 246.76 387.53 245.14 390.34 243.87 C 389.13 245.38 388.00 246.94 386.87 248.50 C 377.59 263.44 379.04 282.99 381.45 299.80 C 380.49 302.97 375.98 305.60 373.03 306.26 C 370.71 303.12 367.47 300.94 363.96 299.33 C 367.33 296.94 368.46 292.29 372.70 290.67 C 376.47 278.94 370.58 266.43 372.83 254.33 C 365.31 250.91 363.93 241.81 360.65 235.36 C 347.45 236.11 350.32 217.72 338.90 216.45 C 335.75 214.99 332.70 213.35 329.68 211.64 C 332.78 211.05 335.87 210.62 339.00 210.12 Z" fill="#fdd65a" opacity="1.00" stroke="#fdd65a" stroke-width="0.25"/>
<path d="M 455.79 208.62 C 470.41 207.00 487.64 209.79 498.26 220.80 C 497.20 221.80 496.15 222.80 495.13 223.83 C 493.47 225.36 491.46 226.49 489.20 226.77 C 482.93 226.16 476.68 225.68 470.44 224.89 C 466.96 224.37 463.51 223.93 460.00 223.89 L 458.90 223.85 C 465.25 219.99 472.66 225.58 479.31 223.35 C 479.82 223.23 480.84 222.99 481.34 222.87 C 485.03 223.07 489.12 223.33 492.34 221.14 C 488.35 216.95 482.78 215.10 477.33 213.67 C 475.66 213.20 473.95 212.92 472.24 212.73 C 468.88 212.30 465.56 212.01 462.20 211.82 C 461.23 208.99 458.39 208.74 455.79 208.62 Z" fill="#f2e387" opacity="1.00" stroke="#f2e387" stroke-width="0.25"/>
<path d="M 151.19 212.38 C 154.50 213.31 157.69 212.57 158.94 209.04 C 161.13 212.58 167.03 210.96 167.41 215.77 C 170.75 213.56 174.21 211.25 178.18 213.66 C 170.09 217.30 164.39 225.24 163.88 234.08 C 168.71 227.36 176.06 223.32 183.74 220.72 C 188.49 220.22 193.78 222.33 198.30 220.24 C 200.12 219.63 198.12 217.22 197.96 215.94 C 199.30 212.23 206.72 216.59 210.67 216.29 C 213.48 218.28 217.54 218.25 219.65 221.20 C 218.64 227.41 220.45 238.11 229.28 234.83 C 239.35 240.13 250.97 240.74 261.64 244.35 C 263.39 246.63 264.70 249.42 267.68 250.32 C 278.02 254.32 285.15 265.78 282.91 276.88 C 280.44 280.60 278.56 287.27 272.68 284.28 C 265.98 282.80 264.38 290.86 263.75 295.71 C 259.39 298.90 253.84 301.66 248.38 301.94 C 248.49 298.98 246.49 296.42 243.32 297.07 C 242.16 300.50 239.12 303.54 236.14 299.82 C 238.78 293.86 233.06 291.25 229.21 287.80 C 225.86 285.45 226.37 278.04 222.30 278.22 C 215.16 285.49 215.04 301.43 201.81 300.93 C 204.76 298.13 208.61 295.96 210.21 292.06 C 211.97 288.78 213.72 285.50 215.32 282.14 C 216.35 280.96 216.40 279.35 215.97 277.92 C 217.18 263.11 208.20 247.24 193.21 243.83 C 190.08 242.98 186.79 242.60 183.70 243.67 C 170.81 246.82 160.34 258.57 158.77 271.75 C 158.32 276.50 156.98 281.63 158.70 286.29 C 160.00 290.61 164.68 293.19 169.04 293.01 C 170.10 293.21 171.14 293.50 172.16 293.86 C 166.91 294.34 161.46 295.26 156.31 293.69 C 152.30 290.96 153.43 284.29 148.11 282.81 C 141.51 276.60 132.32 279.58 124.22 279.83 C 121.59 277.36 122.62 272.48 124.88 269.85 C 130.62 262.70 128.13 252.61 130.43 244.39 C 133.04 240.80 132.97 236.35 134.27 232.30 C 137.06 229.89 140.70 227.98 138.33 223.27 C 143.22 220.35 147.58 216.83 151.19 212.38 Z" fill="#fdf9ad" opacity="1.00" stroke="#fdf9ad" stroke-width="0.25"/>
<path d="M 420.92 235.92 C 433.01 227.52 439.14 209.21 455.79 208.62 C 458.39 208.74 461.23 208.99 462.20 211.82 C 461.57 212.03 460.32 212.44 459.70 212.65 C 458.38 213.06 457.09 213.54 455.85 214.14 C 461.05 221.91 471.15 221.47 479.31 223.35 C 472.66 225.58 465.25 219.99 458.90 223.85 C 457.60 223.86 456.30 223.85 455.01 223.83 C 453.14 220.24 451.60 216.53 449.76 212.95 C 438.10 218.07 432.22 230.39 423.31 238.95 C 422.55 237.91 421.74 236.91 420.92 235.92 Z" fill="#f4efa8" opacity="1.00" stroke="#f4efa8" stroke-width="0.25"/>
<path d="M 215.77 210.17 C 218.60 210.28 221.38 210.56 224.21 210.84 C 221.39 210.77 218.56 210.43 215.77 210.17 Z" fill="#a68039" opacity="1.00" stroke="#a68039" stroke-width="0.25"/>
<path d="M 287.71 210.64 C 290.55 210.20 293.40 210.36 296.29 210.34 C 293.46 210.87 290.54 210.60 287.71 210.64 Z" fill="#a4792c" opacity="1.00" stroke="#a4792c" stroke-width="0.25"/>
<path d="M 233.77 211.23 C 248.91 210.74 264.08 210.95 279.23 211.25 C 264.13 212.47 248.86 212.48 233.77 211.23 Z" fill="#a27840" opacity="1.00" stroke="#a27840" stroke-width="0.25"/>
<path d="M 178.18 213.66 C 180.19 213.04 182.19 212.36 184.20 211.73 C 189.17 211.87 194.41 211.96 197.96 215.94 C 198.12 217.22 200.12 219.63 198.30 220.24 C 193.49 220.54 188.39 219.03 183.74 220.72 C 176.06 223.32 168.71 227.36 163.88 234.08 C 164.39 225.24 170.09 217.30 178.18 213.66 Z" fill="#50290e" opacity="1.00" stroke="#50290e" stroke-width="0.25"/>
<path d="M 316.14 213.44 C 320.56 212.25 325.08 211.54 329.68 211.64 C 332.70 213.35 335.75 214.99 338.90 216.45 C 344.23 221.18 347.90 227.77 347.07 235.10 C 343.83 230.14 340.03 225.24 334.29 223.03 C 326.93 219.99 318.65 220.99 310.93 221.86 C 310.11 217.94 313.42 215.51 316.14 213.44 Z" fill="#4e210b" opacity="1.00" stroke="#4e210b" stroke-width="0.25"/>
<path d="M 459.70 212.65 C 460.32 212.44 461.57 212.03 462.20 211.82 C 465.56 212.01 468.88 212.30 472.24 212.73 C 468.05 212.71 463.87 212.69 459.70 212.65 Z" fill="#a0803f" opacity="1.00" stroke="#a0803f" stroke-width="0.25"/>
<path d="M 307.32 215.28 C 310.40 215.29 313.04 213.14 316.14 213.44 C 313.42 215.51 310.11 217.94 310.93 221.86 C 318.65 220.99 326.93 219.99 334.29 223.03 C 331.67 226.53 322.59 220.52 317.79 224.20 C 319.57 229.19 325.03 230.58 329.26 232.78 C 336.87 240.04 344.39 247.83 350.08 256.81 C 351.97 261.89 357.72 265.65 356.54 271.63 C 354.86 276.97 356.06 282.53 356.01 288.01 C 356.05 291.09 353.09 293.94 354.86 296.98 C 345.63 297.29 335.02 299.54 328.93 306.93 C 323.98 316.94 334.75 324.50 343.38 326.25 C 344.05 326.45 345.38 326.85 346.04 327.05 C 344.75 328.92 343.63 330.90 342.39 332.81 C 341.74 329.56 340.04 333.98 338.61 334.60 C 331.77 334.98 325.03 337.59 318.17 336.16 C 314.75 341.54 321.87 349.14 317.75 353.89 C 311.38 355.64 311.13 348.18 308.89 344.37 C 299.97 344.43 292.34 350.25 283.29 350.17 C 284.25 352.81 283.56 355.82 280.07 355.07 C 283.84 347.02 271.71 347.96 267.04 350.15 C 260.90 354.84 252.18 351.57 246.10 356.12 C 240.77 359.96 233.32 358.11 228.80 363.75 C 215.71 365.37 203.64 371.41 191.62 376.60 C 188.86 377.86 183.86 375.65 185.05 372.12 C 186.06 369.33 189.77 366.19 186.53 363.47 C 180.79 354.46 170.00 350.85 164.31 341.78 C 161.34 334.20 150.51 329.55 143.53 334.47 C 138.46 338.16 133.94 331.00 135.60 326.32 C 135.57 320.60 129.78 321.25 128.94 326.26 C 124.17 323.45 123.90 317.53 122.28 312.79 C 120.58 306.82 119.75 300.48 117.28 294.78 C 113.20 294.21 109.02 293.61 105.12 292.03 C 96.05 306.55 105.94 323.60 100.63 338.73 C 101.41 341.48 105.06 344.22 102.85 347.10 L 101.79 347.30 C 95.93 336.63 93.57 324.31 92.56 312.29 C 92.81 308.28 93.08 304.27 93.36 300.28 C 94.25 298.15 92.17 290.89 95.65 293.40 C 96.85 294.71 99.45 299.16 100.55 295.64 C 104.99 276.91 107.72 257.44 115.86 239.79 C 115.52 244.65 114.79 249.47 114.11 254.29 C 118.02 252.07 121.10 248.44 124.26 245.26 C 128.29 238.61 127.28 228.79 134.16 224.02 C 131.66 230.91 128.73 237.68 126.88 244.80 C 123.21 254.65 120.64 264.86 118.19 275.06 C 119.20 288.61 119.91 303.31 126.93 315.27 C 129.90 313.87 132.14 307.40 135.87 309.96 C 137.25 329.39 163.47 330.49 176.99 322.85 C 174.13 330.58 175.65 341.82 184.76 344.27 C 187.52 351.63 187.75 361.89 196.90 364.23 C 203.69 370.76 211.83 364.71 218.94 362.00 C 224.72 359.95 229.29 355.69 234.51 352.62 C 248.70 348.92 262.98 344.46 275.37 336.43 C 290.37 333.91 303.81 326.03 317.10 319.14 C 321.64 316.66 320.71 310.67 322.46 306.43 C 326.73 302.63 333.34 301.34 336.21 296.10 C 337.35 294.05 339.53 293.19 341.79 293.43 C 347.16 293.40 354.70 289.34 353.06 283.02 C 354.67 267.61 345.85 251.90 331.91 245.22 C 334.05 245.16 334.37 244.75 332.88 243.98 C 326.18 239.23 316.33 242.70 311.34 235.68 C 300.58 238.81 294.26 229.49 285.62 225.39 C 270.70 221.69 255.65 220.54 240.79 217.19 C 262.98 216.79 285.21 217.65 307.32 215.28 Z" fill="#fce97c" opacity="1.00" stroke="#fce97c" stroke-width="0.25"/>
<path d="M 423.31 238.95 C 432.22 230.39 438.10 218.07 449.76 212.95 C 451.60 216.53 453.14 220.24 455.01 223.83 C 444.33 226.62 440.46 238.90 432.97 246.14 C 429.28 248.66 424.38 252.09 419.84 250.13 C 418.95 245.81 420.40 241.94 423.31 238.95 Z" fill="#fdfddc" opacity="1.00" stroke="#fdfddc" stroke-width="0.25"/>
<path d="M 455.85 214.14 C 457.09 213.54 458.38 213.06 459.70 212.65 C 463.87 212.69 468.05 212.71 472.24 212.73 C 473.95 212.92 475.66 213.20 477.33 213.67 C 471.98 217.30 477.33 221.56 481.34 222.87 C 480.84 222.99 479.82 223.23 479.31 223.35 C 471.15 221.47 461.05 221.91 455.85 214.14 Z" fill="#623512" opacity="1.00" stroke="#623512" stroke-width="0.25"/>
<path d="M 477.33 213.67 C 482.78 215.10 488.35 216.95 492.34 221.14 C 489.12 223.33 485.03 223.07 481.34 222.87 C 477.33 221.56 471.98 217.30 477.33 213.67 Z" fill="#93551a" opacity="1.00" stroke="#93551a" stroke-width="0.25"/>
<path d="M 156.39 215.48 C 160.31 212.81 162.31 216.64 163.75 219.20 C 162.37 227.53 151.91 231.14 152.76 239.89 C 152.22 245.09 148.69 251.73 142.25 249.87 C 136.30 244.55 139.94 234.76 145.70 230.72 C 143.33 223.91 149.42 215.92 156.39 215.48 Z" fill="#fefdd4" opacity="1.00" stroke="#fefdd4" stroke-width="0.25"/>
<path d="M 45.08 225.13 C 50.18 222.01 54.86 216.75 61.02 215.89 C 53.93 226.13 51.19 238.36 51.75 250.72 C 43.23 254.17 47.83 271.67 36.68 272.36 C 31.20 256.45 33.62 237.84 45.08 225.13 Z" fill="#8f481c" opacity="1.00" stroke="#8f481c" stroke-width="0.25"/>
<path d="M 73.96 217.01 C 74.70 215.28 81.27 215.30 82.03 217.00 C 79.34 216.98 76.65 216.98 73.96 217.01 Z" fill="#7b6d68" opacity="1.00" stroke="#7b6d68" stroke-width="0.25"/>
<path d="M 210.67 216.29 C 216.71 216.10 222.76 216.57 228.77 217.21 C 246.11 222.30 260.87 232.91 277.58 239.53 C 281.52 244.11 290.02 243.42 290.85 250.20 C 300.17 254.23 307.24 241.61 317.11 243.49 C 306.45 246.44 298.00 255.69 296.74 266.76 C 296.11 271.21 295.36 275.91 296.70 280.31 C 296.74 281.39 296.77 282.46 296.79 283.55 C 296.82 291.05 303.55 296.74 309.08 301.05 C 305.70 300.22 302.83 298.11 300.14 296.01 C 298.15 292.00 296.18 287.63 292.31 285.08 C 290.47 287.90 289.19 291.02 288.01 294.15 C 285.81 297.67 291.30 300.75 289.39 304.42 C 285.89 298.94 277.98 298.19 279.15 306.87 C 273.79 309.88 268.53 313.53 262.30 314.37 C 258.44 314.16 254.61 314.00 250.76 314.27 C 243.74 313.83 237.46 310.05 232.00 305.86 C 232.41 304.22 232.87 302.58 232.90 300.89 C 231.03 298.86 229.04 298.77 226.92 300.61 C 226.14 301.49 225.17 302.32 224.90 303.52 C 221.79 308.18 224.84 310.44 228.69 309.54 C 234.41 315.15 241.80 319.09 249.75 320.28 C 253.86 320.89 258.21 321.50 262.31 320.38 C 266.24 319.40 270.09 318.11 273.91 316.78 C 279.62 317.28 269.24 321.45 268.03 321.10 C 258.78 325.31 248.70 322.73 239.31 320.47 C 233.00 321.20 224.67 319.70 220.99 326.19 C 218.04 322.62 214.31 320.15 209.75 319.21 C 207.48 314.77 208.75 309.04 207.84 304.21 C 205.30 302.16 201.67 303.19 198.68 302.35 C 199.71 301.86 200.76 301.39 201.81 300.93 C 215.04 301.43 215.16 285.49 222.30 278.22 C 226.37 278.04 225.86 285.45 229.21 287.80 C 233.06 291.25 238.78 293.86 236.14 299.82 C 239.12 303.54 242.16 300.50 243.32 297.07 C 246.49 296.42 248.49 298.98 248.38 301.94 C 253.84 301.66 259.39 298.90 263.75 295.71 C 264.38 290.86 265.98 282.80 272.68 284.28 C 278.56 287.27 280.44 280.60 282.91 276.88 C 285.15 265.78 278.02 254.32 267.68 250.32 C 264.70 249.42 263.39 246.63 261.64 244.35 C 250.97 240.74 239.35 240.13 229.28 234.83 C 220.45 238.11 218.64 227.41 219.65 221.20 C 217.54 218.25 213.48 218.28 210.67 216.29 Z" fill="#fcf49d" opacity="1.00" stroke="#fcf49d" stroke-width="0.25"/>
<path d="M 338.90 216.45 C 350.32 217.72 347.45 236.11 360.65 235.36 C 363.93 241.81 365.31 250.91 372.83 254.33 C 370.58 266.43 376.47 278.94 372.70 290.67 C 368.46 292.29 367.33 296.94 363.96 299.33 C 361.78 298.51 359.51 297.97 357.23 297.55 C 356.63 297.41 355.45 297.12 354.86 296.98 C 353.09 293.94 356.05 291.09 356.01 288.01 C 356.06 282.53 354.86 276.97 356.54 271.63 C 357.72 265.65 351.97 261.89 350.08 256.81 C 344.39 247.83 336.87 240.04 329.26 232.78 C 325.03 230.58 319.57 229.19 317.79 224.20 C 322.59 220.52 331.67 226.53 334.29 223.03 C 340.03 225.24 343.83 230.14 347.07 235.10 C 347.90 227.77 344.23 221.18 338.90 216.45 Z" fill="#fde26c" opacity="1.00" stroke="#fde26c" stroke-width="0.25"/>
<path d="M 59.97 238.98 C 60.09 230.12 64.11 218.72 73.96 217.01 C 76.65 216.98 79.34 216.98 82.03 217.00 C 92.03 218.06 92.29 229.69 98.65 235.25 C 94.16 248.35 89.35 261.38 86.52 274.99 C 85.90 276.17 85.79 277.52 86.00 278.83 C 86.14 280.27 85.98 281.67 85.53 283.05 C 84.90 284.56 84.83 286.22 84.96 287.85 C 84.85 288.40 84.64 289.51 84.53 290.06 C 84.38 291.50 84.09 294.39 83.94 295.83 C 83.96 296.38 83.99 297.47 84.01 298.02 C 70.55 288.38 62.89 271.99 60.00 256.02 C 59.99 250.34 60.00 244.66 59.97 238.98 Z" fill="#fcfbfb" opacity="1.00" stroke="#fcfbfb" stroke-width="0.25"/>
<path d="M 228.77 217.21 C 232.77 217.17 236.78 217.16 240.79 217.19 C 255.65 220.54 270.70 221.69 285.62 225.39 C 294.26 229.49 300.58 238.81 311.34 235.68 C 316.33 242.70 326.18 239.23 332.88 243.98 C 334.37 244.75 334.05 245.16 331.91 245.22 C 330.68 244.73 329.47 244.19 328.20 243.83 C 324.77 243.18 321.33 243.08 317.88 243.55 L 317.11 243.49 C 307.24 241.61 300.17 254.23 290.85 250.20 C 290.02 243.42 281.52 244.11 277.58 239.53 C 260.87 232.91 246.11 222.30 228.77 217.21 Z" fill="#fef38d" opacity="1.00" stroke="#fef38d" stroke-width="0.25"/>
<path d="M 183.74 220.72 C 188.39 219.03 193.49 220.54 198.30 220.24 C 193.78 222.33 188.49 220.22 183.74 220.72 Z" fill="#7c612e" opacity="1.00" stroke="#7c612e" stroke-width="0.25"/>
<path d="M 498.26 220.80 C 504.56 228.82 492.06 233.27 486.94 236.96 C 469.42 248.87 461.80 270.66 459.99 290.96 C 458.30 310.26 451.01 330.11 434.90 342.00 C 426.68 346.25 416.30 350.92 407.55 345.82 C 413.95 344.21 420.74 347.82 426.91 343.89 C 438.34 337.45 449.06 327.62 452.23 314.44 C 451.95 310.57 456.94 306.05 453.33 302.67 C 449.91 297.75 454.50 291.93 452.71 286.73 C 456.02 273.13 459.36 258.61 469.20 248.04 C 474.93 240.04 483.58 234.98 492.63 231.64 C 495.44 230.11 501.09 224.91 495.13 223.83 C 496.15 222.80 497.20 221.80 498.26 220.80 Z" fill="#f1d476" opacity="1.00" stroke="#f1d476" stroke-width="0.25"/>
<path d="M 39.72 227.78 C 42.14 227.29 42.56 222.46 45.08 225.13 C 33.62 237.84 31.20 256.45 36.68 272.36 C 37.95 277.92 39.70 283.41 42.75 288.27 C 50.97 304.96 65.11 319.83 83.13 325.72 C 85.37 327.07 84.89 324.50 85.07 323.04 C 87.43 324.02 85.68 330.16 86.95 332.99 C 74.18 326.73 60.20 321.74 51.25 309.94 C 45.42 302.97 41.55 294.68 36.90 286.94 C 28.69 267.69 24.12 244.13 34.67 224.95 C 36.03 226.34 37.36 228.94 39.72 227.78 Z" fill="#642707" opacity="1.00" stroke="#642707" stroke-width="0.25"/>
<path d="M 432.97 246.14 C 440.46 238.90 444.33 226.62 455.01 223.83 C 456.30 223.85 457.60 223.86 458.90 223.85 L 460.00 223.89 C 452.47 225.51 460.51 232.19 456.91 236.92 C 455.02 242.27 453.14 257.13 444.19 251.79 C 444.95 246.83 443.96 241.83 445.01 236.89 C 440.40 239.20 437.72 244.08 432.97 246.14 Z" fill="#fceb79" opacity="1.00" stroke="#fceb79" stroke-width="0.25"/>
<path d="M 460.00 223.89 C 463.51 223.93 466.96 224.37 470.44 224.89 C 461.21 226.42 465.76 237.29 460.92 243.04 C 455.43 249.16 450.84 256.11 447.95 263.83 C 441.35 267.85 440.46 277.21 433.04 280.04 C 427.69 283.13 419.71 283.26 415.23 278.61 C 409.47 275.67 407.13 283.72 401.73 283.75 C 400.58 287.13 399.22 290.53 396.97 293.35 C 394.22 290.85 393.59 284.58 388.19 287.06 C 386.26 291.91 387.82 297.39 386.17 302.33 C 385.42 297.33 384.21 292.36 384.10 287.30 C 387.41 284.40 388.87 280.23 389.36 275.97 C 392.86 277.46 396.10 279.58 400.20 278.94 C 415.47 280.04 425.21 259.67 414.10 248.78 C 413.64 247.05 410.53 244.25 413.31 243.31 C 417.53 239.90 418.57 247.37 419.84 250.13 C 424.38 252.09 429.28 248.66 432.97 246.14 C 437.72 244.08 440.40 239.20 445.01 236.89 C 443.96 241.83 444.95 246.83 444.19 251.79 C 453.14 257.13 455.02 242.27 456.91 236.92 C 460.51 232.19 452.47 225.51 460.00 223.89 Z" fill="#fce16a" opacity="1.00" stroke="#fce16a" stroke-width="0.25"/>
<path d="M 495.13 223.83 C 501.09 224.91 495.44 230.11 492.63 231.64 C 483.58 234.98 474.93 240.04 469.20 248.04 C 469.13 247.27 468.98 245.73 468.91 244.96 C 457.44 253.32 451.68 267.27 442.95 278.14 C 443.65 273.07 446.41 268.65 447.95 263.83 C 450.84 256.11 455.43 249.16 460.92 243.04 C 469.06 235.88 478.67 229.70 489.20 226.77 C 491.46 226.49 493.47 225.36 495.13 223.83 Z" fill="#ebaf35" opacity="1.00" stroke="#ebaf35" stroke-width="0.25"/>
<path d="M 470.44 224.89 C 476.68 225.68 482.93 226.16 489.20 226.77 C 478.67 229.70 469.06 235.88 460.92 243.04 C 465.76 237.29 461.21 226.42 470.44 224.89 Z" fill="#fad352" opacity="1.00" stroke="#fad352" stroke-width="0.25"/>
<path d="M 8.44 242.90 C 7.49 241.13 6.72 236.92 9.03 236.23 C 9.28 238.46 9.09 240.68 8.44 242.90 Z" fill="#867873" opacity="1.00" stroke="#867873" stroke-width="0.25"/>
<path d="M 408.16 242.36 C 412.84 241.23 416.85 238.38 420.92 235.92 C 421.74 236.91 422.55 237.91 423.31 238.95 C 420.40 241.94 418.95 245.81 419.84 250.13 C 418.57 247.37 417.53 239.90 413.31 243.31 C 410.53 244.25 413.64 247.05 414.10 248.78 C 401.44 248.40 388.54 260.50 392.22 273.72 C 394.17 276.37 397.27 277.69 400.20 278.94 C 396.10 279.58 392.86 277.46 389.36 275.97 C 388.87 280.23 387.41 284.40 384.10 287.30 C 383.93 275.92 382.76 263.51 388.78 253.29 C 392.94 246.36 400.52 243.44 408.16 242.36 Z" fill="#f9e878" opacity="1.00" stroke="#f9e878" stroke-width="0.25"/>
<path d="M 390.34 243.87 C 395.11 241.69 399.75 239.00 404.92 237.85 C 405.17 240.05 405.11 242.79 408.16 242.36 C 400.52 243.44 392.94 246.36 388.78 253.29 C 388.46 251.53 389.31 248.88 386.87 248.50 C 388.00 246.94 389.13 245.38 390.34 243.87 Z" fill="#925a10" opacity="1.00" stroke="#925a10" stroke-width="0.25"/>
<path d="M 15.99 253.01 C 14.62 250.93 13.68 241.40 15.99 238.98 C 16.02 243.66 15.99 248.33 15.99 253.01 Z" fill="#7e4e26" opacity="1.00" stroke="#7e4e26" stroke-width="0.25"/>
<path d="M 60.00 256.02 C 58.89 253.11 57.31 241.88 59.97 238.98 C 60.00 244.66 59.99 250.34 60.00 256.02 Z" fill="#aca09c" opacity="1.00" stroke="#aca09c" stroke-width="0.25"/>
<path d="M 183.70 243.67 C 186.79 242.60 190.08 242.98 193.21 243.83 C 190.02 243.74 186.87 243.77 183.70 243.67 Z" fill="#8e8464" opacity="1.00" stroke="#8e8464" stroke-width="0.25"/>
<path d="M 317.88 243.55 C 321.33 243.08 324.77 243.18 328.20 243.83 C 324.73 243.81 321.31 243.99 317.88 243.55 Z" fill="#918551" opacity="1.00" stroke="#918551" stroke-width="0.25"/>
<path d="M 158.77 271.75 C 160.34 258.57 170.81 246.82 183.70 243.67 C 186.87 243.77 190.02 243.74 193.21 243.83 C 208.20 247.24 217.18 263.11 215.97 277.92 C 214.39 278.79 214.66 280.76 215.32 282.14 C 213.72 285.50 211.97 288.78 210.21 292.06 C 198.37 303.59 175.24 297.52 171.84 281.13 C 169.28 272.07 171.25 260.77 178.98 254.74 C 182.99 251.62 188.20 251.83 193.03 252.07 C 193.92 253.50 193.93 254.51 191.89 254.18 C 191.45 254.01 190.57 253.67 190.13 253.51 C 188.81 253.49 186.16 253.46 184.84 253.45 C 183.57 254.28 182.32 255.16 181.08 256.03 C 179.71 256.40 178.71 257.47 178.56 258.89 C 178.54 260.20 178.51 262.82 178.50 264.12 C 180.57 266.36 183.01 268.22 185.85 269.38 C 187.01 270.62 189.05 270.68 190.10 269.25 C 192.04 267.74 193.99 266.18 195.25 264.03 C 196.46 262.62 196.29 260.67 196.23 258.95 C 199.70 259.31 203.29 259.10 206.08 256.86 C 204.67 254.72 202.65 252.95 200.14 252.28 C 192.99 249.58 184.11 248.48 177.79 253.69 C 164.60 261.60 161.03 280.17 169.04 293.01 C 164.68 293.19 160.00 290.61 158.70 286.29 C 158.80 281.43 158.88 276.60 158.77 271.75 Z" fill="#26150c" opacity="1.00" stroke="#26150c" stroke-width="0.25"/>
<path d="M 296.74 266.76 C 298.00 255.69 306.45 246.44 317.11 243.49 L 317.88 243.55 C 321.31 243.99 324.73 243.81 328.20 243.83 C 329.47 244.19 330.68 244.73 331.91 245.22 C 345.85 251.90 354.67 267.61 353.06 283.02 C 354.70 289.34 347.16 293.40 341.79 293.43 C 343.36 290.41 344.98 287.40 346.22 284.23 C 346.90 280.17 347.85 275.70 346.29 271.73 C 344.09 265.32 340.62 259.28 335.28 255.00 C 333.10 250.61 330.54 255.22 335.06 255.74 C 341.90 265.28 343.67 278.92 337.09 289.07 C 326.90 302.95 302.63 300.41 296.79 283.55 C 296.77 282.46 296.74 281.39 296.70 280.31 C 296.79 275.78 296.78 271.27 296.74 266.76 Z" fill="#24110b" opacity="1.00" stroke="#24110b" stroke-width="0.25"/>
<path d="M 118.19 275.06 C 120.64 264.86 123.21 254.65 126.88 244.80 C 125.31 261.59 116.13 279.37 124.21 295.80 C 131.72 300.61 141.33 293.67 149.15 298.27 C 143.24 300.17 137.95 303.89 135.87 309.96 C 132.14 307.40 129.90 313.87 126.93 315.27 C 119.91 303.31 119.20 288.61 118.19 275.06 Z" fill="#fdf28c" opacity="1.00" stroke="#fdf28c" stroke-width="0.25"/>
<path d="M 442.95 278.14 C 451.68 267.27 457.44 253.32 468.91 244.96 C 468.98 245.73 469.13 247.27 469.20 248.04 C 459.36 258.61 456.02 273.13 452.71 286.73 C 451.31 291.47 450.51 296.36 449.18 301.11 C 448.13 300.79 447.08 300.49 446.02 300.22 C 444.58 305.96 440.83 310.54 437.00 314.92 C 435.09 316.27 434.82 320.53 431.81 319.59 C 427.83 318.47 428.37 313.22 425.99 311.70 C 432.81 304.44 437.07 295.32 440.03 285.92 C 441.04 283.34 441.94 280.72 442.95 278.14 Z" fill="#e2a12b" opacity="1.00" stroke="#e2a12b" stroke-width="0.25"/>
<path d="M 8.37 248.68 C 9.16 251.72 8.98 254.86 9.00 257.99 C 5.71 257.86 8.72 251.13 8.37 248.68 Z" fill="#84726f" opacity="1.00" stroke="#84726f" stroke-width="0.25"/>
<path d="M 381.45 299.80 C 379.04 282.99 377.59 263.44 386.87 248.50 C 389.31 248.88 388.46 251.53 388.78 253.29 C 382.76 263.51 383.93 275.92 384.10 287.30 C 384.21 292.36 385.42 297.33 386.17 302.33 C 386.77 307.02 387.75 311.69 389.08 316.25 C 389.51 317.94 390.10 319.61 390.86 321.19 C 392.04 323.79 393.16 326.41 394.48 328.94 C 397.45 334.65 400.47 340.62 405.53 344.79 C 405.65 349.30 415.19 349.41 410.40 354.12 C 407.31 352.12 404.11 350.30 401.23 348.02 C 392.98 340.37 388.77 329.94 385.17 319.55 C 384.53 316.97 383.81 314.36 383.19 311.80 C 382.84 307.77 382.17 303.77 381.45 299.80 Z" fill="#b47412" opacity="1.00" stroke="#b47412" stroke-width="0.25"/>
<path d="M 392.22 273.72 C 388.54 260.50 401.44 248.40 414.10 248.78 C 425.21 259.67 415.47 280.04 400.20 278.94 C 397.27 277.69 394.17 276.37 392.22 273.72 Z" fill="#fefdda" opacity="1.00" stroke="#fefdda" stroke-width="0.25"/>
<path d="M 177.79 253.69 C 184.11 248.48 192.99 249.58 200.14 252.28 C 197.75 252.20 195.41 252.21 193.03 252.07 C 188.20 251.83 182.99 251.62 178.98 254.74 C 178.68 254.48 178.09 253.95 177.79 253.69 Z" fill="#978071" opacity="1.00" stroke="#978071" stroke-width="0.25"/>
<path d="M 36.68 272.36 C 47.83 271.67 43.23 254.17 51.75 250.72 C 52.19 258.71 55.19 266.19 57.13 273.84 C 60.02 280.87 52.78 285.14 49.05 290.02 C 47.67 287.34 45.36 287.13 42.75 288.27 C 39.70 283.41 37.95 277.92 36.68 272.36 Z" fill="#a05420" opacity="1.00" stroke="#a05420" stroke-width="0.25"/>
<path d="M 193.03 252.07 C 195.41 252.21 197.75 252.20 200.14 252.28 C 202.65 252.95 204.67 254.72 206.08 256.86 C 203.29 259.10 199.70 259.31 196.23 258.95 C 196.01 258.70 195.57 258.19 195.35 257.94 C 194.31 256.58 193.11 255.36 191.89 254.18 C 193.93 254.51 193.92 253.50 193.03 252.07 Z" fill="#594737" opacity="1.00" stroke="#594737" stroke-width="0.25"/>
<path d="M 184.84 253.45 C 186.16 253.46 188.81 253.49 190.13 253.51 C 188.59 254.72 186.33 254.77 184.84 253.45 Z" fill="#a29995" opacity="1.00" stroke="#a29995" stroke-width="0.25"/>
<path d="M 305.94 258.23 C 307.85 253.53 314.44 251.22 318.79 254.24 C 321.00 256.29 323.53 258.46 323.11 261.81 C 322.15 270.11 308.00 272.37 305.95 263.76 C 306.03 261.92 306.03 260.07 305.94 258.23 Z" fill="#f5f4f3" opacity="1.00" stroke="#f5f4f3" stroke-width="0.25"/>
<path d="M 318.79 254.24 C 323.09 252.08 331.92 251.99 332.99 257.94 C 331.21 264.79 323.41 255.43 323.11 261.81 C 323.53 258.46 321.00 256.29 318.79 254.24 Z" fill="#4b362a" opacity="1.00" stroke="#4b362a" stroke-width="0.25"/>
<path d="M 335.06 255.74 C 330.54 255.22 333.10 250.61 335.28 255.00 L 335.06 255.74 Z" fill="#a49189" opacity="1.00" stroke="#a49189" stroke-width="0.25"/>
<path d="M 169.04 293.01 C 161.03 280.17 164.60 261.60 177.79 253.69 C 178.09 253.95 178.68 254.48 178.98 254.74 C 171.25 260.77 169.28 272.07 171.84 281.13 C 175.24 297.52 198.37 303.59 210.21 292.06 C 208.61 295.96 204.76 298.13 201.81 300.93 C 200.76 301.39 199.71 301.86 198.68 302.35 C 190.80 303.09 183.36 301.19 176.33 297.83 C 175.08 296.38 173.84 294.83 172.16 293.86 C 171.14 293.50 170.10 293.21 169.04 293.01 Z" fill="#efebd1" opacity="1.00" stroke="#efebd1" stroke-width="0.25"/>
<path d="M 181.08 256.03 C 182.32 255.16 183.57 254.28 184.84 253.45 C 186.33 254.77 188.59 254.72 190.13 253.51 C 190.57 253.67 191.45 254.01 191.89 254.18 C 193.11 255.36 194.31 256.58 195.35 257.94 C 194.74 259.92 194.78 262.02 195.25 264.03 C 193.99 266.18 192.04 267.74 190.10 269.25 C 188.67 268.75 187.25 268.80 185.85 269.38 C 183.01 268.22 180.57 266.36 178.50 264.12 C 179.79 262.66 179.77 260.39 178.56 258.89 C 180.21 259.13 181.31 257.54 181.08 256.03 Z" fill="#f9f8f7" opacity="1.00" stroke="#f9f8f7" stroke-width="0.25"/>
<path d="M 335.28 255.00 C 340.62 259.28 344.09 265.32 346.29 271.73 C 346.26 275.89 346.24 280.06 346.22 284.23 C 344.98 287.40 343.36 290.41 341.79 293.43 C 339.53 293.19 337.35 294.05 336.21 296.10 C 328.50 301.74 318.32 304.31 309.08 301.05 C 303.55 296.74 296.82 291.05 296.79 283.55 C 302.63 300.41 326.90 302.95 337.09 289.07 C 343.67 278.92 341.90 265.28 335.06 255.74 L 335.28 255.00 Z" fill="#ece2c6" opacity="1.00" stroke="#ece2c6" stroke-width="0.25"/>
<path d="M 178.56 258.89 C 178.71 257.47 179.71 256.40 181.08 256.03 C 181.31 257.54 180.21 259.13 178.56 258.89 Z" fill="#a09693" opacity="1.00" stroke="#a09693" stroke-width="0.25"/>
<path d="M 195.35 257.94 C 195.57 258.19 196.01 258.70 196.23 258.95 C 196.29 260.67 196.46 262.62 195.25 264.03 C 194.78 262.02 194.74 259.92 195.35 257.94 Z" fill="#bbb4ae" opacity="1.00" stroke="#bbb4ae" stroke-width="0.25"/>
<path d="M 305.95 263.76 C 304.11 263.32 304.11 258.68 305.94 258.23 C 306.03 260.07 306.03 261.92 305.95 263.76 Z" fill="#8f8785" opacity="1.00" stroke="#8f8785" stroke-width="0.25"/>
<path d="M 178.50 264.12 C 178.51 262.82 178.54 260.20 178.56 258.89 C 179.77 260.39 179.79 262.66 178.50 264.12 Z" fill="#7e6f6b" opacity="1.00" stroke="#7e6f6b" stroke-width="0.25"/>
<path d="M 9.45 262.01 C 10.07 263.19 10.19 264.53 10.02 265.84 C 8.17 266.00 8.33 262.85 9.45 262.01 Z" fill="#9c8d8c" opacity="1.00" stroke="#9c8d8c" stroke-width="0.25"/>
<path d="M 433.04 280.04 C 440.46 277.21 441.35 267.85 447.95 263.83 C 446.41 268.65 443.65 273.07 442.95 278.14 C 441.94 280.72 441.04 283.34 440.03 285.92 C 432.78 293.71 421.01 295.78 410.84 295.73 C 401.94 296.37 403.40 311.48 393.96 310.45 C 390.77 310.09 390.58 314.28 389.08 316.25 C 387.75 311.69 386.77 307.02 386.17 302.33 C 387.82 297.39 386.26 291.91 388.19 287.06 C 393.59 284.58 394.22 290.85 396.97 293.35 C 399.22 290.53 400.58 287.13 401.73 283.75 C 407.13 283.72 409.47 275.67 415.23 278.61 C 419.71 283.26 427.69 283.13 433.04 280.04 Z" fill="#fdd85b" opacity="1.00" stroke="#fdd85b" stroke-width="0.25"/>
<path d="M 296.70 280.31 C 295.36 275.91 296.11 271.21 296.74 266.76 C 296.78 271.27 296.79 275.78 296.70 280.31 Z" fill="#716543" opacity="1.00" stroke="#716543" stroke-width="0.25"/>
<path d="M 185.85 269.38 C 187.25 268.80 188.67 268.75 190.10 269.25 C 189.05 270.68 187.01 270.62 185.85 269.38 Z" fill="#68605d" opacity="1.00" stroke="#68605d" stroke-width="0.25"/>
<path d="M 158.70 286.29 C 156.98 281.63 158.32 276.50 158.77 271.75 C 158.88 276.60 158.80 281.43 158.70 286.29 Z" fill="#5f5536" opacity="1.00" stroke="#5f5536" stroke-width="0.25"/>
<path d="M 346.29 271.73 C 347.85 275.70 346.90 280.17 346.22 284.23 C 346.24 280.06 346.26 275.89 346.29 271.73 Z" fill="#a77b61" opacity="1.00" stroke="#a77b61" stroke-width="0.25"/>
<path d="M 57.13 273.84 C 63.71 286.38 72.29 297.76 83.75 306.25 C 83.77 311.88 85.20 317.41 85.07 323.04 C 84.89 324.50 85.37 327.07 83.13 325.72 C 65.11 319.83 50.97 304.96 42.75 288.27 C 45.36 287.13 47.67 287.34 49.05 290.02 C 52.78 285.14 60.02 280.87 57.13 273.84 Z" fill="#b46527" opacity="1.00" stroke="#b46527" stroke-width="0.25"/>
<path d="M 86.00 278.83 C 85.79 277.52 85.90 276.17 86.52 274.99 C 87.63 275.82 87.84 278.97 86.00 278.83 Z" fill="#9f9389" opacity="1.00" stroke="#9f9389" stroke-width="0.25"/>
<path d="M 211.30 275.28 C 217.59 275.84 211.38 284.70 208.95 286.96 C 205.32 293.45 191.66 298.93 187.30 290.73 C 186.64 284.01 194.25 282.12 199.61 282.75 C 201.15 278.08 206.73 275.65 211.30 275.28 Z" fill="#574530" opacity="1.00" stroke="#574530" stroke-width="0.25"/>
<path d="M 215.32 282.14 C 214.66 280.76 214.39 278.79 215.97 277.92 C 216.40 279.35 216.35 280.96 215.32 282.14 Z" fill="#857953" opacity="1.00" stroke="#857953" stroke-width="0.25"/>
<path d="M 323.27 278.17 C 327.76 277.93 339.68 275.48 337.85 283.78 C 331.85 289.20 324.73 297.89 315.63 294.41 C 308.23 291.74 313.56 282.34 320.04 283.08 C 323.40 283.38 319.96 279.09 323.27 278.17 Z" fill="#53402f" opacity="1.00" stroke="#53402f" stroke-width="0.25"/>
<path d="M 84.96 287.85 C 84.83 286.22 84.90 284.56 85.53 283.05 C 86.56 284.21 86.97 287.69 84.96 287.85 Z" fill="#7c6f6a" opacity="1.00" stroke="#7c6f6a" stroke-width="0.25"/>
<path d="M 468.02 287.81 C 467.82 286.19 467.83 284.53 468.51 283.02 C 469.52 284.16 469.99 287.63 468.02 287.81 Z" fill="#8b7c72" opacity="1.00" stroke="#8b7c72" stroke-width="0.25"/>
<path d="M 292.31 285.08 C 296.18 287.63 298.15 292.00 300.14 296.01 C 297.89 294.53 296.42 292.10 294.05 290.80 C 295.62 298.00 292.37 304.90 290.92 311.85 C 286.01 314.00 275.21 316.76 277.75 323.89 C 273.58 325.45 266.26 323.48 265.95 329.98 C 264.30 341.25 250.25 344.97 240.57 342.78 C 241.82 334.14 230.55 335.38 231.70 342.59 C 225.51 343.02 224.75 350.31 220.15 352.08 C 216.92 345.97 221.13 336.01 213.00 333.00 C 209.92 329.43 206.21 336.38 203.83 332.16 C 200.60 327.50 194.43 327.37 189.83 326.14 C 191.70 322.01 182.63 311.97 190.96 312.70 C 192.04 306.69 184.16 304.82 180.70 301.33 C 178.87 298.95 176.14 300.69 173.90 301.02 C 170.73 299.29 167.29 298.18 163.80 297.29 C 168.14 295.75 172.29 295.20 176.33 297.83 C 183.36 301.19 190.80 303.09 198.68 302.35 C 201.67 303.19 205.30 302.16 207.84 304.21 C 208.75 309.04 207.48 314.77 209.75 319.21 C 214.31 320.15 218.04 322.62 220.99 326.19 C 224.67 319.70 233.00 321.20 239.31 320.47 C 248.70 322.73 258.78 325.31 268.03 321.10 C 269.24 321.45 279.62 317.28 273.91 316.78 C 277.48 314.79 280.98 312.63 283.99 309.84 C 285.21 310.19 287.47 310.84 287.90 309.08 L 288.18 308.38 C 288.70 307.10 289.07 305.77 289.39 304.42 C 291.30 300.75 285.81 297.67 288.01 294.15 C 289.19 291.02 290.47 287.90 292.31 285.08 Z" fill="#fef393" opacity="1.00" stroke="#fef393" stroke-width="0.25"/>
<path d="M 410.84 295.73 C 421.01 295.78 432.78 293.71 440.03 285.92 C 437.07 295.32 432.81 304.44 425.99 311.70 C 416.00 319.47 403.02 320.52 390.86 321.19 C 390.10 319.61 389.51 317.94 389.08 316.25 C 390.58 314.28 390.77 310.09 393.96 310.45 C 403.40 311.48 401.94 296.37 410.84 295.73 Z" fill="#fccc4c" opacity="1.00" stroke="#fccc4c" stroke-width="0.25"/>
<path d="M 31.54 297.18 C 30.71 292.63 32.57 288.73 36.90 286.94 C 41.55 294.68 45.42 302.97 51.25 309.94 C 52.31 316.86 45.19 309.08 44.09 312.80 C 46.90 315.39 50.60 317.33 52.03 321.10 C 43.04 315.74 36.58 306.08 31.54 297.18 Z" fill="#a05520" opacity="1.00" stroke="#a05520" stroke-width="0.25"/>
<path d="M 449.18 301.11 C 450.51 296.36 451.31 291.47 452.71 286.73 C 454.50 291.93 449.91 297.75 453.33 302.67 C 456.94 306.05 451.95 310.57 452.23 314.44 C 449.06 327.62 438.34 337.45 426.91 343.89 C 420.74 347.82 413.95 344.21 407.55 345.82 C 407.05 345.57 406.03 345.05 405.53 344.79 C 400.47 340.62 397.45 334.65 394.48 328.94 C 397.88 327.25 397.97 334.51 400.91 335.11 C 414.17 343.85 430.37 334.94 438.59 323.62 C 443.83 317.06 446.87 309.10 449.18 301.11 Z" fill="#fad367" opacity="1.00" stroke="#fad367" stroke-width="0.25"/>
<path d="M 92.56 312.29 C 91.20 304.19 92.00 295.88 92.70 287.76 C 92.91 291.93 93.13 296.10 93.36 300.28 C 93.08 304.27 92.81 308.28 92.56 312.29 Z" fill="#a89658" opacity="1.00" stroke="#a89658" stroke-width="0.25"/>
<path d="M 83.94 295.83 C 84.09 294.39 84.38 291.50 84.53 290.06 C 85.71 291.47 86.19 295.47 83.94 295.83 Z" fill="#9e948f" opacity="1.00" stroke="#9e948f" stroke-width="0.25"/>
<path d="M 294.05 290.80 C 296.42 292.10 297.89 294.53 300.14 296.01 C 302.83 298.11 305.70 300.22 309.08 301.05 C 318.32 304.31 328.50 301.74 336.21 296.10 C 333.34 301.34 326.73 302.63 322.46 306.43 C 320.71 310.67 321.64 316.66 317.10 319.14 C 303.81 326.03 290.37 333.91 275.37 336.43 C 262.98 344.46 248.70 348.92 234.51 352.62 C 229.29 355.69 224.72 359.95 218.94 362.00 C 211.83 364.71 203.69 370.76 196.90 364.23 C 187.75 361.89 187.52 351.63 184.76 344.27 C 175.65 341.82 174.13 330.58 176.99 322.85 C 185.04 316.93 183.09 304.60 173.90 301.02 C 176.14 300.69 178.87 298.95 180.70 301.33 C 184.16 304.82 192.04 306.69 190.96 312.70 C 182.63 311.97 191.70 322.01 189.83 326.14 C 194.43 327.37 200.60 327.50 203.83 332.16 C 206.21 336.38 209.92 329.43 213.00 333.00 C 221.13 336.01 216.92 345.97 220.15 352.08 C 224.75 350.31 225.51 343.02 231.70 342.59 C 230.55 335.38 241.82 334.14 240.57 342.78 C 250.25 344.97 264.30 341.25 265.95 329.98 C 266.26 323.48 273.58 325.45 277.75 323.89 C 275.21 316.76 286.01 314.00 290.92 311.85 C 292.37 304.90 295.62 298.00 294.05 290.80 Z" fill="#fef18b" opacity="1.00" stroke="#fef18b" stroke-width="0.25"/>
<path d="M 105.12 292.03 C 109.02 293.61 113.20 294.21 117.28 294.78 C 119.75 300.48 120.58 306.82 122.28 312.79 C 122.20 313.36 122.03 314.51 121.94 315.08 C 118.45 309.11 110.01 312.99 104.18 311.14 C 100.84 327.03 107.22 345.89 118.95 357.12 C 119.37 357.97 119.82 358.81 120.27 359.65 C 126.93 372.29 141.22 376.58 151.38 385.56 C 158.83 386.98 165.71 390.07 172.57 393.27 C 181.76 393.15 175.88 394.83 173.82 395.88 C 154.51 392.15 135.93 383.94 120.95 371.06 C 113.59 364.16 108.38 355.22 102.85 347.10 C 105.06 344.22 101.41 341.48 100.63 338.73 C 105.94 323.60 96.05 306.55 105.12 292.03 Z" fill="#fbdd6b" opacity="1.00" stroke="#fbdd6b" stroke-width="0.25"/>
<path d="M 466.93 297.82 C 467.08 296.39 467.37 293.52 467.51 292.09 C 468.76 293.45 469.21 297.51 466.93 297.82 Z" fill="#94877d" opacity="1.00" stroke="#94877d" stroke-width="0.25"/>
<path d="M 149.15 298.27 C 153.86 296.61 158.91 297.14 163.80 297.29 C 167.29 298.18 170.73 299.29 173.90 301.02 C 183.09 304.60 185.04 316.93 176.99 322.85 C 163.47 330.49 137.25 329.39 135.87 309.96 C 137.95 303.89 143.24 300.17 149.15 298.27 Z" fill="#f8943a" opacity="1.00" stroke="#f8943a" stroke-width="0.25"/>
<path d="M 328.93 306.93 C 335.02 299.54 345.63 297.29 354.86 296.98 C 355.45 297.12 356.63 297.41 357.23 297.55 C 353.41 297.03 354.65 299.46 355.57 301.82 C 350.29 309.34 347.90 318.30 343.38 326.25 C 334.75 324.50 323.98 316.94 328.93 306.93 Z" fill="#f99039" opacity="1.00" stroke="#f99039" stroke-width="0.25"/>
<path d="M 355.57 301.82 C 354.65 299.46 353.41 297.03 357.23 297.55 C 359.51 297.97 361.78 298.51 363.96 299.33 C 367.47 300.94 370.71 303.12 373.03 306.26 C 377.30 315.40 369.19 323.65 360.78 325.69 C 359.53 326.10 358.29 326.54 357.06 327.00 C 354.38 327.00 351.71 327.02 349.04 327.05 C 348.29 327.05 346.79 327.05 346.04 327.05 C 345.38 326.85 344.05 326.45 343.38 326.25 C 347.90 318.30 350.29 309.34 355.57 301.82 Z" fill="#f98528" opacity="1.00" stroke="#f98528" stroke-width="0.25"/>
<path d="M 226.92 300.61 C 229.04 298.77 231.03 298.86 232.90 300.89 C 230.93 301.43 228.85 301.25 226.92 300.61 Z" fill="#ba9d5c" opacity="1.00" stroke="#ba9d5c" stroke-width="0.25"/>
<path d="M 279.15 306.87 C 277.98 298.19 285.89 298.94 289.39 304.42 C 289.07 305.77 288.70 307.10 288.18 308.38 C 285.17 307.88 282.27 306.19 279.15 306.87 Z" fill="#734218" opacity="1.00" stroke="#734218" stroke-width="0.25"/>
<path d="M 381.45 299.80 C 382.17 303.77 382.84 307.77 383.19 311.80 C 382.73 315.32 383.75 321.58 378.15 319.14 C 381.67 326.81 374.79 331.48 371.33 337.33 C 367.88 341.49 360.95 342.74 359.62 348.63 C 356.25 361.33 340.83 361.20 331.41 367.50 C 313.27 370.57 295.21 374.30 277.59 379.53 C 266.76 387.60 252.01 382.85 239.68 387.32 C 232.28 386.83 224.66 387.18 217.45 385.12 C 241.89 373.48 270.20 378.69 295.03 368.15 C 306.67 362.63 320.16 368.65 331.68 362.58 C 337.88 358.85 345.05 356.84 351.18 353.21 C 355.17 343.88 361.90 335.84 364.87 326.06 C 363.50 325.89 362.14 325.77 360.78 325.69 C 369.19 323.65 377.30 315.40 373.03 306.26 C 375.98 305.60 380.49 302.97 381.45 299.80 Z" fill="#fdcf4a" opacity="1.00" stroke="#fdcf4a" stroke-width="0.25"/>
<path d="M 446.02 300.22 C 447.08 300.49 448.13 300.79 449.18 301.11 C 446.87 309.10 443.83 317.06 438.59 323.62 C 430.37 334.94 414.17 343.85 400.91 335.11 C 397.97 334.51 397.88 327.25 394.48 328.94 C 393.16 326.41 392.04 323.79 390.86 321.19 C 403.02 320.52 416.00 319.47 425.99 311.70 C 428.37 313.22 427.83 318.47 431.81 319.59 C 434.82 320.53 435.09 316.27 437.00 314.92 C 440.83 310.54 444.58 305.96 446.02 300.22 Z" fill="#d99226" opacity="1.00" stroke="#d99226" stroke-width="0.25"/>
<path d="M 224.90 303.52 C 225.17 302.32 226.14 301.49 226.92 300.61 C 228.85 301.25 230.93 301.43 232.90 300.89 C 232.87 302.58 232.41 304.22 232.00 305.86 C 228.53 307.46 224.98 308.73 224.90 303.52 Z" fill="#77451a" opacity="1.00" stroke="#77451a" stroke-width="0.25"/>
<path d="M 228.69 309.54 C 224.84 310.44 221.79 308.18 224.90 303.52 C 224.98 308.73 228.53 307.46 232.00 305.86 C 237.46 310.05 243.74 313.83 250.76 314.27 C 254.56 314.93 258.48 315.08 262.30 314.37 C 268.53 313.53 273.79 309.88 279.15 306.87 C 282.27 306.19 285.17 307.88 288.18 308.38 L 287.90 309.08 C 286.57 308.59 284.92 308.62 283.99 309.84 C 280.98 312.63 277.48 314.79 273.91 316.78 C 270.09 318.11 266.24 319.40 262.31 320.38 C 258.12 320.31 253.93 320.28 249.75 320.28 C 241.80 319.09 234.41 315.15 228.69 309.54 Z" fill="#43220c" opacity="1.00" stroke="#43220c" stroke-width="0.25"/>
<path d="M 464.96 311.83 C 464.81 310.52 464.93 309.19 465.51 308.00 C 466.66 308.82 466.83 312.01 464.96 311.83 Z" fill="#c0b0a9" opacity="1.00" stroke="#c0b0a9" stroke-width="0.25"/>
<path d="M 283.99 309.84 C 284.92 308.62 286.57 308.59 287.90 309.08 C 287.47 310.84 285.21 310.19 283.99 309.84 Z" fill="#ae925b" opacity="1.00" stroke="#ae925b" stroke-width="0.25"/>
<path d="M 51.25 309.94 C 60.20 321.74 74.18 326.73 86.95 332.99 C 86.79 336.50 88.13 339.74 89.04 343.06 C 75.27 338.86 62.07 331.36 52.03 321.10 C 50.60 317.33 46.90 315.39 44.09 312.80 C 45.19 309.08 52.31 316.86 51.25 309.94 Z" fill="#8e4319" opacity="1.00" stroke="#8e4319" stroke-width="0.25"/>
<path d="M 104.18 311.14 C 110.01 312.99 118.45 309.11 121.94 315.08 C 123.21 321.93 125.82 328.42 128.10 334.97 C 126.25 333.50 122.96 331.61 121.22 334.20 C 117.92 341.29 114.04 349.84 118.95 357.12 C 107.22 345.89 100.84 327.03 104.18 311.14 Z" fill="#face4f" opacity="1.00" stroke="#face4f" stroke-width="0.25"/>
<path d="M 383.19 311.80 C 383.81 314.36 384.53 316.97 385.17 319.55 C 382.97 327.91 379.65 335.91 375.84 343.65 C 360.93 363.29 338.41 375.99 314.62 381.64 C 290.02 386.42 264.67 388.78 239.68 387.32 C 252.01 382.85 266.76 387.60 277.59 379.53 C 295.21 374.30 313.27 370.57 331.41 367.50 C 340.83 361.20 356.25 361.33 359.62 348.63 C 360.95 342.74 367.88 341.49 371.33 337.33 C 374.79 331.48 381.67 326.81 378.15 319.14 C 383.75 321.58 382.73 315.32 383.19 311.80 Z" fill="#fdc842" opacity="1.00" stroke="#fdc842" stroke-width="0.25"/>
<path d="M 122.28 312.79 C 123.90 317.53 124.17 323.45 128.94 326.26 C 129.78 321.25 135.57 320.60 135.60 326.32 C 133.94 331.00 138.46 338.16 143.53 334.47 C 150.51 329.55 161.34 334.20 164.31 341.78 C 170.00 350.85 180.79 354.46 186.53 363.47 C 189.77 366.19 186.06 369.33 185.05 372.12 C 183.86 375.65 188.86 377.86 191.62 376.60 C 203.64 371.41 215.71 365.37 228.80 363.75 C 233.32 358.11 240.77 359.96 246.10 356.12 C 252.18 351.57 260.90 354.84 267.04 350.15 C 271.71 347.96 283.84 347.02 280.07 355.07 C 283.56 355.82 284.25 352.81 283.29 350.17 C 292.34 350.25 299.97 344.43 308.89 344.37 C 311.13 348.18 311.38 355.64 317.75 353.89 C 321.87 349.14 314.75 341.54 318.17 336.16 C 325.03 337.59 331.77 334.98 338.61 334.60 C 340.04 333.98 341.74 329.56 342.39 332.81 C 343.63 330.90 344.75 328.92 346.04 327.05 C 346.79 327.05 348.29 327.05 349.04 327.05 C 350.13 334.49 347.42 344.17 338.37 344.42 C 328.83 346.86 323.30 361.98 312.35 357.63 C 302.09 352.40 290.63 356.29 281.12 361.10 C 273.80 361.73 266.29 362.95 260.08 367.11 C 245.32 368.11 230.82 375.13 216.08 371.11 C 206.72 370.78 200.33 378.17 191.86 380.35 C 189.92 379.85 188.04 379.16 186.13 378.58 C 162.45 371.77 139.56 357.49 128.10 334.97 C 125.82 328.42 123.21 321.93 121.94 315.08 C 122.03 314.51 122.20 313.36 122.28 312.79 Z" fill="#fee670" opacity="1.00" stroke="#fee670" stroke-width="0.25"/>
<path d="M 250.76 314.27 C 254.61 314.00 258.44 314.16 262.30 314.37 C 258.48 315.08 254.56 314.93 250.76 314.27 Z" fill="#bdac76" opacity="1.00" stroke="#bdac76" stroke-width="0.25"/>
<path d="M 249.75 320.28 C 253.93 320.28 258.12 320.31 262.31 320.38 C 258.21 321.50 253.86 320.89 249.75 320.28 Z" fill="#816e33" opacity="1.00" stroke="#816e33" stroke-width="0.25"/>
<path d="M 375.84 343.65 C 379.65 335.91 382.97 327.91 385.17 319.55 C 388.77 329.94 392.98 340.37 401.23 348.02 C 395.75 360.83 384.26 370.17 372.18 376.55 C 368.30 374.74 373.16 371.30 371.48 368.46 C 369.95 365.07 371.64 359.48 367.22 358.48 C 367.91 352.60 376.11 349.87 375.84 343.65 Z" fill="#e9a72c" opacity="1.00" stroke="#e9a72c" stroke-width="0.25"/>
<path d="M 357.06 327.00 C 358.29 326.54 359.53 326.10 360.78 325.69 C 362.14 325.77 363.50 325.89 364.87 326.06 C 361.90 335.84 355.17 343.88 351.18 353.21 C 345.05 356.84 337.88 358.85 331.68 362.58 C 320.16 368.65 306.67 362.63 295.03 368.15 C 270.20 378.69 241.89 373.48 217.45 385.12 C 211.13 384.49 204.76 383.97 198.69 381.95 C 207.22 376.87 217.10 375.26 226.87 376.83 C 247.99 372.77 270.17 371.95 289.99 362.98 C 296.83 360.57 304.33 359.04 311.42 361.46 C 324.77 365.39 335.25 355.13 346.72 350.64 C 351.88 343.59 353.33 334.77 357.06 327.00 Z" fill="#fed756" opacity="1.00" stroke="#fed756" stroke-width="0.25"/>
<path d="M 349.04 327.05 C 351.71 327.02 354.38 327.00 357.06 327.00 C 353.33 334.77 351.88 343.59 346.72 350.64 C 335.25 355.13 324.77 365.39 311.42 361.46 C 304.33 359.04 296.83 360.57 289.99 362.98 C 270.17 371.95 247.99 372.77 226.87 376.83 C 217.10 375.26 207.22 376.87 198.69 381.95 C 196.41 381.44 194.11 380.89 191.86 380.35 C 200.33 378.17 206.72 370.78 216.08 371.11 C 230.82 375.13 245.32 368.11 260.08 367.11 C 266.29 362.95 273.80 361.73 281.12 361.10 C 290.63 356.29 302.09 352.40 312.35 357.63 C 323.30 361.98 328.83 346.86 338.37 344.42 C 347.42 344.17 350.13 334.49 349.04 327.05 Z" fill="#fede63" opacity="1.00" stroke="#fede63" stroke-width="0.25"/>
<path d="M 121.22 334.20 C 122.96 331.61 126.25 333.50 128.10 334.97 C 139.56 357.49 162.45 371.77 186.13 378.58 C 183.83 379.15 182.74 380.68 183.46 382.97 C 179.93 384.30 176.56 381.87 173.01 381.93 C 171.92 385.84 175.56 385.27 178.78 385.24 C 179.67 387.38 179.39 389.95 182.09 391.00 C 159.07 386.58 137.53 375.41 120.27 359.65 C 119.82 358.81 119.37 357.97 118.95 357.12 C 114.04 349.84 117.92 341.29 121.22 334.20 Z" fill="#f6bc3b" opacity="1.00" stroke="#f6bc3b" stroke-width="0.25"/>
<path d="M 407.55 345.82 C 416.30 350.92 426.68 346.25 434.90 342.00 C 439.61 342.67 444.37 342.51 449.10 343.12 C 441.93 351.22 431.27 356.34 420.76 357.96 C 419.47 357.66 417.96 358.14 417.92 359.67 C 411.91 374.89 397.03 383.54 384.11 392.20 C 385.19 396.90 388.47 401.08 389.04 406.03 C 389.86 415.73 384.72 424.86 376.71 430.14 C 374.02 431.80 371.30 433.42 368.61 435.10 L 367.98 435.25 C 366.63 434.62 364.80 434.43 363.88 435.86 C 361.31 436.42 358.73 436.93 356.12 437.26 C 354.72 436.62 352.90 436.47 351.88 437.84 C 351.18 437.94 349.79 438.13 349.10 438.23 C 347.38 437.62 345.32 437.41 343.94 438.83 C 337.64 438.96 331.36 439.04 325.08 438.87 C 323.72 437.36 321.59 437.61 319.90 438.33 C 317.30 437.96 314.74 437.42 312.21 436.73 C 305.11 435.07 299.39 429.28 292.08 428.94 C 290.62 428.57 289.00 428.66 287.91 429.79 C 284.29 430.16 280.67 430.70 277.08 431.23 C 275.37 430.61 273.35 430.44 271.93 431.77 C 269.37 431.91 266.83 432.09 264.29 432.32 C 260.11 432.26 255.93 432.24 251.76 432.28 C 240.38 432.47 229.24 430.03 218.14 428.10 C 212.19 431.70 206.45 435.73 199.68 437.74 C 199.03 437.88 197.75 438.15 197.11 438.29 C 195.41 437.61 193.31 437.39 191.93 438.83 C 184.98 438.95 178.04 439.12 171.10 438.89 C 169.54 438.73 166.43 438.42 164.87 438.27 C 158.53 437.24 152.25 435.85 146.23 433.61 C 144.62 432.80 143.02 432.00 141.39 431.25 C 134.55 427.16 128.98 420.97 126.73 413.25 C 126.80 410.47 126.90 407.71 127.01 404.95 C 127.08 400.33 129.83 396.50 130.98 392.21 C 124.26 388.04 117.17 383.96 111.80 378.10 C 113.44 376.89 117.06 370.49 117.56 374.94 C 116.40 378.74 121.08 376.71 122.24 374.86 C 145.56 392.92 175.34 399.12 203.89 403.23 C 204.97 404.45 206.68 404.39 208.09 403.83 C 213.35 403.95 218.55 404.68 223.78 405.16 C 226.57 405.42 229.40 405.79 232.22 405.82 C 235.38 405.94 238.60 406.02 241.77 406.23 C 254.21 407.31 266.85 407.61 279.29 406.37 C 280.76 406.13 282.23 405.87 283.71 405.66 C 286.55 405.58 289.45 405.85 292.28 405.33 C 294.15 405.11 296.02 404.96 297.90 404.81 C 299.45 404.65 302.55 404.32 304.10 404.16 C 305.36 404.05 306.63 403.96 307.90 403.86 C 309.31 404.40 311.01 404.43 312.11 403.23 C 317.54 402.70 322.86 401.43 328.25 400.58 C 359.17 394.79 393.95 383.23 410.40 354.12 C 415.19 349.41 405.65 349.30 405.53 344.79 C 406.03 345.05 407.05 345.57 407.55 345.82 Z" fill="#3c1808" opacity="1.00" stroke="#3c1808" stroke-width="0.25"/>
<path d="M 314.62 381.64 C 338.41 375.99 360.93 363.29 375.84 343.65 C 376.11 349.87 367.91 352.60 367.22 358.48 C 371.64 359.48 369.95 365.07 371.48 368.46 C 373.16 371.30 368.30 374.74 372.18 376.55 C 345.93 390.62 315.82 394.80 286.54 397.49 C 251.65 398.96 216.28 399.04 182.09 391.00 C 179.39 389.95 179.67 387.38 178.78 385.24 C 175.56 385.27 171.92 385.84 173.01 381.93 C 176.56 381.87 179.93 384.30 183.46 382.97 C 182.74 380.68 183.83 379.15 186.13 378.58 C 188.04 379.16 189.92 379.85 191.86 380.35 C 194.11 380.89 196.41 381.44 198.69 381.95 C 204.76 383.97 211.13 384.49 217.45 385.12 C 224.66 387.18 232.28 386.83 239.68 387.32 C 264.67 388.78 290.02 386.42 314.62 381.64 Z" fill="#f1ad30" opacity="1.00" stroke="#f1ad30" stroke-width="0.25"/>
<path d="M 101.79 347.30 L 102.85 347.10 C 108.38 355.22 113.59 364.16 120.95 371.06 C 135.93 383.94 154.51 392.15 173.82 395.88 C 207.69 405.05 243.15 405.14 277.97 404.85 C 294.82 404.52 311.48 400.96 328.25 400.58 C 322.86 401.43 317.54 402.70 312.11 403.23 C 310.71 402.62 308.89 402.47 307.90 403.86 C 306.63 403.96 305.36 404.05 304.10 404.16 C 302.55 404.32 299.45 404.65 297.90 404.81 C 296.02 404.96 294.15 405.11 292.28 405.33 C 289.39 405.33 286.54 405.11 283.71 405.66 C 282.23 405.87 280.76 406.13 279.29 406.37 C 266.79 405.77 254.27 405.93 241.77 406.23 C 238.60 406.02 235.38 405.94 232.22 405.82 C 229.39 405.53 226.61 405.29 223.78 405.16 C 218.55 404.68 213.35 403.95 208.09 403.83 C 207.06 402.49 205.28 402.61 203.89 403.23 C 175.34 399.12 145.56 392.92 122.24 374.86 C 113.98 366.85 106.14 358.14 101.79 347.30 Z" fill="#efd987" opacity="1.00" stroke="#efd987" stroke-width="0.25"/>
<path d="M 401.23 348.02 C 404.11 350.30 407.31 352.12 410.40 354.12 C 393.95 383.23 359.17 394.79 328.25 400.58 C 311.48 400.96 294.82 404.52 277.97 404.85 C 243.15 405.14 207.69 405.05 173.82 395.88 C 175.88 394.83 181.76 393.15 172.57 393.27 C 165.71 390.07 158.83 386.98 151.38 385.56 C 141.22 376.58 126.93 372.29 120.27 359.65 C 137.53 375.41 159.07 386.58 182.09 391.00 C 216.28 399.04 251.65 398.96 286.54 397.49 C 315.82 394.80 345.93 390.62 372.18 376.55 C 384.26 370.17 395.75 360.83 401.23 348.02 Z" fill="#fad662" opacity="1.00" stroke="#fad662" stroke-width="0.25"/>
<path d="M 417.92 359.67 C 417.96 358.14 419.47 357.66 420.76 357.96 C 421.18 359.27 418.91 360.33 417.92 359.67 Z" fill="#baaaa4" opacity="1.00" stroke="#baaaa4" stroke-width="0.25"/>
<path d="M 137.84 393.88 C 149.94 400.17 164.25 403.07 176.40 407.22 C 175.61 409.53 172.80 408.22 170.97 408.65 C 168.62 408.62 166.26 408.51 163.93 408.23 C 162.01 407.41 160.15 406.44 158.16 405.84 C 150.97 403.81 142.09 401.72 138.14 394.68 L 137.84 393.88 Z" fill="#98542a" opacity="1.00" stroke="#98542a" stroke-width="0.25"/>
<path d="M 135.94 413.77 C 132.53 407.79 133.72 399.74 138.14 394.68 C 142.09 401.72 150.97 403.81 158.16 405.84 C 155.55 405.68 153.08 406.08 150.75 407.05 C 147.21 408.30 149.71 413.68 152.64 414.18 C 156.52 416.84 167.51 414.47 163.93 408.23 C 166.26 408.51 168.62 408.62 170.97 408.65 C 170.47 415.48 162.37 417.26 157.57 420.60 C 149.05 423.42 143.35 413.53 135.94 413.77 Z" fill="#bd723b" opacity="1.00" stroke="#bd723b" stroke-width="0.25"/>
<path d="M 348.20 405.15 C 357.57 402.26 366.86 398.51 376.02 394.99 C 381.75 399.03 384.18 410.20 379.10 416.07 C 367.11 423.22 352.82 426.46 338.98 424.06 C 334.91 423.17 328.68 421.87 328.00 417.06 C 331.67 408.89 341.91 410.07 348.20 405.15 Z" fill="#8a4a23" opacity="1.00" stroke="#8a4a23" stroke-width="0.25"/>
<path d="M 203.89 403.23 C 205.28 402.61 207.06 402.49 208.09 403.83 C 206.68 404.39 204.97 404.45 203.89 403.23 Z" fill="#998348" opacity="1.00" stroke="#998348" stroke-width="0.25"/>
<path d="M 307.90 403.86 C 308.89 402.47 310.71 402.62 312.11 403.23 C 311.01 404.43 309.31 404.40 307.90 403.86 Z" fill="#9b8443" opacity="1.00" stroke="#9b8443" stroke-width="0.25"/>
<path d="M 297.90 404.81 C 299.45 404.65 302.55 404.32 304.10 404.16 C 302.55 404.32 299.45 404.65 297.90 404.81 Z" fill="#9f864e" opacity="1.00" stroke="#9f864e" stroke-width="0.25"/>
<path d="M 125.91 411.12 C 126.32 409.28 124.87 405.45 127.01 404.95 C 126.90 407.71 126.80 410.47 126.73 413.25 C 126.52 412.72 126.11 411.65 125.91 411.12 Z" fill="#898383" opacity="1.00" stroke="#898383" stroke-width="0.25"/>
<path d="M 223.78 405.16 C 226.61 405.29 229.39 405.53 232.22 405.82 C 229.40 405.79 226.57 405.42 223.78 405.16 Z" fill="#9b7e44" opacity="1.00" stroke="#9b7e44" stroke-width="0.25"/>
<path d="M 283.71 405.66 C 286.54 405.11 289.39 405.33 292.28 405.33 C 289.45 405.85 286.55 405.58 283.71 405.66 Z" fill="#aa9352" opacity="1.00" stroke="#aa9352" stroke-width="0.25"/>
<path d="M 302.06 414.04 C 317.52 411.64 332.78 407.64 348.20 405.15 C 341.91 410.07 331.67 408.89 328.00 417.06 C 328.68 421.87 334.91 423.17 338.98 424.06 C 352.82 426.46 367.11 423.22 379.10 416.07 C 371.87 429.34 354.28 429.90 341.00 431.94 C 327.47 432.00 309.52 432.45 301.27 419.73 C 300.08 417.92 298.91 414.45 302.06 414.04 Z" fill="#632f13" opacity="1.00" stroke="#632f13" stroke-width="0.25"/>
<path d="M 150.75 407.05 C 153.08 406.08 155.55 405.68 158.16 405.84 C 160.15 406.44 162.01 407.41 163.93 408.23 C 167.51 414.47 156.52 416.84 152.64 414.18 C 153.94 411.47 152.28 409.23 150.75 407.05 Z" fill="#fcf7e6" opacity="1.00" stroke="#fcf7e6" stroke-width="0.25"/>
<path d="M 241.77 406.23 C 254.27 405.93 266.79 405.77 279.29 406.37 C 266.85 407.61 254.21 407.31 241.77 406.23 Z" fill="#735733" opacity="1.00" stroke="#735733" stroke-width="0.25"/>
<path d="M 368.26 406.19 C 373.14 403.88 375.23 411.30 371.75 413.90 C 365.48 417.27 363.97 408.37 368.26 406.19 Z" fill="#cea16e" opacity="1.00" stroke="#cea16e" stroke-width="0.25"/>
<path d="M 389.04 406.03 C 391.90 405.70 388.37 412.35 392.68 411.35 C 407.08 414.62 426.33 413.13 436.03 426.00 C 433.49 433.09 425.05 434.17 418.96 436.90 C 360.61 452.47 299.28 450.02 239.59 451.62 C 205.38 451.06 171.21 449.00 137.12 445.71 C 117.11 442.15 95.67 440.95 77.96 430.06 C 74.72 428.42 74.46 424.42 77.19 422.15 C 90.47 413.51 106.91 413.93 121.88 410.68 C 123.27 410.50 124.97 409.55 125.91 411.12 C 126.11 411.65 126.52 412.72 126.73 413.25 C 128.98 420.97 134.55 427.16 141.39 431.25 C 137.14 432.01 127.94 427.04 128.11 432.77 C 133.25 435.29 143.02 440.41 146.23 433.61 C 152.25 435.85 158.53 437.24 164.87 438.27 C 166.43 438.42 169.54 438.73 171.10 438.89 C 178.04 439.12 184.98 438.95 191.93 438.83 C 193.65 439.38 195.62 439.49 197.11 438.29 C 197.75 438.15 199.03 437.88 199.68 437.74 C 198.20 440.60 200.56 440.06 202.65 439.58 C 239.11 440.11 275.72 441.38 312.20 439.01 C 309.33 437.62 307.95 436.52 312.21 436.73 C 314.74 437.42 317.30 437.96 319.90 438.33 C 321.41 439.46 323.35 439.38 325.08 438.87 C 331.36 439.04 337.64 438.96 343.94 438.83 C 345.65 439.38 347.66 439.51 349.10 438.23 C 349.79 438.13 351.18 437.94 351.88 437.84 C 353.29 438.39 354.98 438.42 356.12 437.26 C 358.73 436.93 361.31 436.42 363.88 435.86 C 365.25 436.43 366.92 436.43 367.98 435.25 L 368.61 435.10 C 373.23 436.64 377.95 435.03 382.00 432.84 C 382.48 429.94 378.52 430.84 376.71 430.14 C 384.72 424.86 389.86 415.73 389.04 406.03 Z" fill="#e1e1e0" opacity="1.00" stroke="#e1e1e0" stroke-width="0.25"/>
<path d="M 152.64 414.18 C 149.71 413.68 147.21 408.30 150.75 407.05 C 152.28 409.23 153.94 411.47 152.64 414.18 Z" fill="#f0ca9c" opacity="1.00" stroke="#f0ca9c" stroke-width="0.25"/>
<path d="M 176.40 407.22 C 187.15 407.39 197.94 411.19 208.29 413.72 C 214.80 427.23 196.99 430.69 187.15 430.79 C 185.46 426.53 181.60 422.57 182.49 417.66 C 182.86 415.73 181.75 413.84 180.02 413.00 C 177.14 411.29 174.01 410.04 170.97 408.65 C 172.80 408.22 175.61 409.53 176.40 407.22 Z" fill="#693014" opacity="1.00" stroke="#693014" stroke-width="0.25"/>
<path d="M 170.97 408.65 C 174.01 410.04 177.14 411.29 180.02 413.00 C 183.61 419.83 174.65 423.11 169.59 424.61 C 165.06 427.23 155.11 420.40 155.14 428.24 C 147.71 425.80 139.22 421.40 135.94 413.77 C 143.35 413.53 149.05 423.42 157.57 420.60 C 162.37 417.26 170.47 415.48 170.97 408.65 Z" fill="#9b5227" opacity="1.00" stroke="#9b5227" stroke-width="0.25"/>
<path d="M 180.02 413.00 C 181.75 413.84 182.86 415.73 182.49 417.66 C 181.60 422.57 185.46 426.53 187.15 430.79 C 177.05 432.83 163.84 431.79 155.14 428.24 C 155.11 420.40 165.06 427.23 169.59 424.61 C 174.65 423.11 183.61 419.83 180.02 413.00 Z" fill="#7d3e1c" opacity="1.00" stroke="#7d3e1c" stroke-width="0.25"/>
<path d="M 280.43 413.59 C 285.88 409.75 292.22 417.88 288.72 421.68 C 269.67 425.36 249.77 425.43 230.64 422.43 C 228.62 421.52 224.52 421.15 225.07 418.18 C 243.10 413.71 262.01 414.53 280.43 413.59 Z" fill="#53250a" opacity="1.00" stroke="#53250a" stroke-width="0.25"/>
<path d="M 199.68 437.74 C 206.45 435.73 212.19 431.70 218.14 428.10 C 229.24 430.03 240.38 432.47 251.76 432.28 C 255.88 432.72 260.19 433.38 264.29 432.32 C 266.83 432.09 269.37 431.91 271.93 431.77 C 273.62 432.38 275.65 432.55 277.08 431.23 C 280.67 430.70 284.29 430.16 287.91 429.79 C 289.30 430.34 291.28 430.55 292.08 428.94 C 299.39 429.28 305.11 435.07 312.21 436.73 C 307.95 436.52 309.33 437.62 312.20 439.01 C 275.72 441.38 239.11 440.11 202.65 439.58 C 200.56 440.06 198.20 440.60 199.68 437.74 Z" fill="#cbcaca" opacity="1.00" stroke="#cbcaca" stroke-width="0.25"/>
<path d="M 287.91 429.79 C 289.00 428.66 290.62 428.57 292.08 428.94 C 291.28 430.55 289.30 430.34 287.91 429.79 Z" fill="#7f716e" opacity="1.00" stroke="#7f716e" stroke-width="0.25"/>
<path d="M 128.11 432.77 C 127.94 427.04 137.14 432.01 141.39 431.25 C 143.02 432.00 144.62 432.80 146.23 433.61 C 143.02 440.41 133.25 435.29 128.11 432.77 Z" fill="#cfcece" opacity="1.00" stroke="#cfcece" stroke-width="0.25"/>
<path d="M 368.61 435.10 C 371.30 433.42 374.02 431.80 376.71 430.14 C 378.52 430.84 382.48 429.94 382.00 432.84 C 377.95 435.03 373.23 436.64 368.61 435.10 Z" fill="#c9c4c3" opacity="1.00" stroke="#c9c4c3" stroke-width="0.25"/>
<path d="M 271.93 431.77 C 273.35 430.44 275.37 430.61 277.08 431.23 C 275.65 432.55 273.62 432.38 271.93 431.77 Z" fill="#8c7679" opacity="1.00" stroke="#8c7679" stroke-width="0.25"/>
<path d="M 251.76 432.28 C 255.93 432.24 260.11 432.26 264.29 432.32 C 260.19 433.38 255.88 432.72 251.76 432.28 Z" fill="#a79b9b" opacity="1.00" stroke="#a79b9b" stroke-width="0.25"/>
<path d="M 363.88 435.86 C 364.80 434.43 366.63 434.62 367.98 435.25 C 366.92 436.43 365.25 436.43 363.88 435.86 Z" fill="#91837e" opacity="1.00" stroke="#91837e" stroke-width="0.25"/>
<path d="M 351.88 437.84 C 352.90 436.47 354.72 436.62 356.12 437.26 C 354.98 438.42 353.29 438.39 351.88 437.84 Z" fill="#756d69" opacity="1.00" stroke="#756d69" stroke-width="0.25"/>
<path d="M 164.87 438.27 C 166.43 438.42 169.54 438.73 171.10 438.89 C 169.54 438.73 166.43 438.42 164.87 438.27 Z" fill="#827170" opacity="1.00" stroke="#827170" stroke-width="0.25"/>
<path d="M 191.93 438.83 C 193.31 437.39 195.41 437.61 197.11 438.29 C 195.62 439.49 193.65 439.38 191.93 438.83 Z" fill="#a39b99" opacity="1.00" stroke="#a39b99" stroke-width="0.25"/>
<path d="M 319.90 438.33 C 321.59 437.61 323.72 437.36 325.08 438.87 C 323.35 439.38 321.41 439.46 319.90 438.33 Z" fill="#7e6a69" opacity="1.00" stroke="#7e6a69" stroke-width="0.25"/>
<path d="M 343.94 438.83 C 345.32 437.41 347.38 437.62 349.10 438.23 C 347.66 439.51 345.65 439.38 343.94 438.83 Z" fill="#7a6a68" opacity="1.00" stroke="#7a6a68" stroke-width="0.25"/>
</svg>